<?xml version="1.0" encoding="UTF-8" standalone="no"?>
<!DOCTYPE svg PUBLIC "-//W3C//DTD SVG 1.1//EN"
 "http://www.w3.org/Graphics/SVG/1.1/DTD/svg11.dtd">
<!-- Generated by graphviz version 2.43.0 (0)
 -->
<!-- Title: src/logic/atm.hpp Pages: 1 -->
<svg width="206pt" height="82pt"
 viewBox="0.00 0.00 205.50 82.00" xmlns="http://www.w3.org/2000/svg" xmlns:xlink="http://www.w3.org/1999/xlink">
<g id="graph0" class="graph" transform="scale(1 1) rotate(0) translate(4 78)">
<title>src/logic/atm.hpp</title>
<!-- Node1 -->
<g id="Node000001" class="node">
<title>Node1</title>
<g id="a_Node000001"><a xlink:title="Main ATM system logic and controller.">
<polygon fill="#999999" stroke="#666666" points="154.5,-74 53.5,-74 53.5,-55 154.5,-55 154.5,-74"/>
<text text-anchor="middle" x="104" y="-62" font-family="Helvetica,sans-Serif" font-size="10.00">src/logic/atm.hpp</text>
</a>
</g>
</g>
<!-- Node2 -->
<g id="Node000002" class="node">
<title>Node2</title>
<g id="a_Node000002"><a xlink:href="atm_8cpp.html" target="_top" xlink:title="Implementation of the main ATM system controller logic.">
<polygon fill="white" stroke="#666666" points="100,-19 0,-19 0,0 100,0 100,-19"/>
<text text-anchor="middle" x="50" y="-7" font-family="Helvetica,sans-Serif" font-size="10.00">src/logic/atm.cpp</text>
</a>
</g>
</g>
<!-- Node1&#45;&gt;Node2 -->
<g id="edge1_Node000001_Node000002" class="edge">
<title>Node1&#45;&gt;Node2</title>
<g id="a_edge1_Node000001_Node000002"><a xlink:title=" ">
<path fill="none" stroke="#63b8ff" d="M87.72,-47.52C78.2,-38.18 66.56,-26.75 58.75,-19.09"/>
<polygon fill="#63b8ff" stroke="#63b8ff" points="85.49,-50.24 95.08,-54.75 90.4,-45.25 85.49,-50.24"/>
</a>
</g>
</g>
<!-- Node3 -->
<g id="Node000003" class="node">
<title>Node3</title>
<g id="a_Node000003"><a xlink:href="main_8cpp.html" target="_top" xlink:title="Entry point for the secure ATM simulator application.">
<polygon fill="white" stroke="#666666" points="197.5,-19 118.5,-19 118.5,0 197.5,0 197.5,-19"/>
<text text-anchor="middle" x="158" y="-7" font-family="Helvetica,sans-Serif" font-size="10.00">src/main.cpp</text>
</a>
</g>
</g>
<!-- Node1&#45;&gt;Node3 -->
<g id="edge2_Node000001_Node000003" class="edge">
<title>Node1&#45;&gt;Node3</title>
<g id="a_edge2_Node000001_Node000003"><a xlink:title=" ">
<path fill="none" stroke="#63b8ff" d="M120.28,-47.52C129.8,-38.18 141.44,-26.75 149.25,-19.09"/>
<polygon fill="#63b8ff" stroke="#63b8ff" points="117.6,-45.25 112.92,-54.75 122.51,-50.24 117.6,-45.25"/>
</a>
</g>
</g>
</g>
</svg>
