<?xml version="1.0" encoding="UTF-8" standalone="no"?>
<!DOCTYPE svg PUBLIC "-//W3C//DTD SVG 1.1//EN"
 "http://www.w3.org/Graphics/SVG/1.1/DTD/svg11.dtd">
<!-- Generated by graphviz version 2.43.0 (0)
 -->
<!-- Title: src/logic/atm.cpp Pages: 1 -->
<svg width="519pt" height="192pt"
 viewBox="0.00 0.00 518.50 192.00" xmlns="http://www.w3.org/2000/svg" xmlns:xlink="http://www.w3.org/1999/xlink">
<g id="graph0" class="graph" transform="scale(1 1) rotate(0) translate(4 188)">
<title>src/logic/atm.cpp</title>
<!-- Node1 -->
<g id="Node000001" class="node">
<title>Node1</title>
<g id="a_Node000001"><a xlink:title="Implementation of the main ATM system controller logic.">
<polygon fill="#999999" stroke="#666666" points="325.5,-184 225.5,-184 225.5,-165 325.5,-165 325.5,-184"/>
<text text-anchor="middle" x="275.5" y="-172" font-family="Helvetica,sans-Serif" font-size="10.00">src/logic/atm.cpp</text>
</a>
</g>
</g>
<!-- Node2 -->
<g id="Node000002" class="node">
<title>Node2</title>
<g id="a_Node000002"><a xlink:href="atm_8hpp.html" target="_top" xlink:title="Main ATM system logic and controller.">
<polygon fill="white" stroke="#666666" points="358,-129 301,-129 301,-110 358,-110 358,-129"/>
<text text-anchor="middle" x="329.5" y="-117" font-family="Helvetica,sans-Serif" font-size="10.00">atm.hpp</text>
</a>
</g>
</g>
<!-- Node1&#45;&gt;Node2 -->
<g id="edge1_Node000001_Node000002" class="edge">
<title>Node1&#45;&gt;Node2</title>
<g id="a_edge1_Node000001_Node000002"><a xlink:title=" ">
<path fill="none" stroke="#63b8ff" d="M284.42,-164.75C292.28,-157.03 303.93,-145.6 313.42,-136.28"/>
<polygon fill="#63b8ff" stroke="#63b8ff" points="316.06,-138.59 320.75,-129.09 311.16,-133.6 316.06,-138.59"/>
</a>
</g>
</g>
<!-- Node8 -->
<g id="Node000008" class="node">
<title>Node8</title>
<g id="a_Node000008"><a xlink:href="auth_8hpp.html" target="_top" xlink:title="Authentication module using libsodium for secure hashing.">
<polygon fill="white" stroke="#666666" points="93,-74 0,-74 0,-55 93,-55 93,-74"/>
<text text-anchor="middle" x="46.5" y="-62" font-family="Helvetica,sans-Serif" font-size="10.00">../auth/auth.hpp</text>
</a>
</g>
</g>
<!-- Node1&#45;&gt;Node8 -->
<g id="edge8_Node000001_Node000008" class="edge">
<title>Node1&#45;&gt;Node8</title>
<g id="a_edge8_Node000001_Node000008"><a xlink:title=" ">
<path fill="none" stroke="#63b8ff" d="M239.77,-164.95C211.46,-157.46 171.34,-145.24 138.5,-129 111.14,-115.47 82.68,-94.6 64.79,-80.52"/>
<polygon fill="#63b8ff" stroke="#63b8ff" points="66.9,-77.72 56.91,-74.21 62.53,-83.19 66.9,-77.72"/>
</a>
</g>
</g>
<!-- Node9 -->
<g id="Node000009" class="node">
<title>Node9</title>
<g id="a_Node000009"><a xlink:href="storage_8hpp.html" target="_top" xlink:title="User data persistence layer.">
<polygon fill="white" stroke="#666666" points="283,-129 160,-129 160,-110 283,-110 283,-129"/>
<text text-anchor="middle" x="221.5" y="-117" font-family="Helvetica,sans-Serif" font-size="10.00">../storage/storage.hpp</text>
</a>
</g>
</g>
<!-- Node1&#45;&gt;Node9 -->
<g id="edge10_Node000001_Node000009" class="edge">
<title>Node1&#45;&gt;Node9</title>
<g id="a_edge10_Node000001_Node000009"><a xlink:title=" ">
<path fill="none" stroke="#63b8ff" d="M266.58,-164.75C258.72,-157.03 247.07,-145.6 237.58,-136.28"/>
<polygon fill="#63b8ff" stroke="#63b8ff" points="239.84,-133.6 230.25,-129.09 234.94,-138.59 239.84,-133.6"/>
</a>
</g>
</g>
<!-- Node10 -->
<g id="Node000010" class="node">
<title>Node10</title>
<g id="a_Node000010"><a xlink:href="ui_8hpp.html" target="_top" xlink:title="User interface components and utilities.">
<polygon fill="white" stroke="#666666" points="179.5,-74 111.5,-74 111.5,-55 179.5,-55 179.5,-74"/>
<text text-anchor="middle" x="145.5" y="-62" font-family="Helvetica,sans-Serif" font-size="10.00">../ui/ui.hpp</text>
</a>
</g>
</g>
<!-- Node1&#45;&gt;Node10 -->
<g id="edge14_Node000001_Node000010" class="edge">
<title>Node1&#45;&gt;Node10</title>
<g id="a_edge14_Node000001_Node000010"><a xlink:title=" ">
<path fill="none" stroke="#63b8ff" d="M225.41,-168.27C199.25,-162.81 169.1,-151.67 151.5,-129 141.84,-116.56 141.06,-98.35 142.28,-84.62"/>
<polygon fill="#63b8ff" stroke="#63b8ff" points="145.79,-84.73 143.62,-74.36 138.85,-83.82 145.79,-84.73"/>
</a>
</g>
</g>
<!-- Node11 -->
<g id="Node000011" class="node">
<title>Node11</title>
<g id="a_Node000011"><a xlink:title=" ">
<polygon fill="#e0e0e0" stroke="#999999" points="436.5,-129 376.5,-129 376.5,-110 436.5,-110 436.5,-129"/>
<text text-anchor="middle" x="406.5" y="-117" font-family="Helvetica,sans-Serif" font-size="10.00">iostream</text>
</a>
</g>
</g>
<!-- Node1&#45;&gt;Node11 -->
<g id="edge16_Node000001_Node000011" class="edge">
<title>Node1&#45;&gt;Node11</title>
<g id="a_edge16_Node000001_Node000011"><a xlink:title=" ">
<path fill="none" stroke="#63b8ff" d="M296.55,-164.98C317.91,-156.34 351.2,-142.87 375.56,-133.02"/>
<polygon fill="#63b8ff" stroke="#63b8ff" points="377.11,-136.17 385.07,-129.17 374.49,-129.68 377.11,-136.17"/>
</a>
</g>
</g>
<!-- Node12 -->
<g id="Node000012" class="node">
<title>Node12</title>
<g id="a_Node000012"><a xlink:title=" ">
<polygon fill="#e0e0e0" stroke="#999999" points="510.5,-129 454.5,-129 454.5,-110 510.5,-110 510.5,-129"/>
<text text-anchor="middle" x="482.5" y="-117" font-family="Helvetica,sans-Serif" font-size="10.00">iomanip</text>
</a>
</g>
</g>
<!-- Node1&#45;&gt;Node12 -->
<g id="edge17_Node000001_Node000012" class="edge">
<title>Node1&#45;&gt;Node12</title>
<g id="a_edge17_Node000001_Node000012"><a xlink:title=" ">
<path fill="none" stroke="#63b8ff" d="M308.76,-164.98C345.79,-155.5 405.54,-140.2 444.42,-130.25"/>
<polygon fill="#63b8ff" stroke="#63b8ff" points="445.49,-133.59 454.31,-127.72 443.76,-126.81 445.49,-133.59"/>
</a>
</g>
</g>
<!-- Node3 -->
<g id="Node000003" class="node">
<title>Node3</title>
<g id="a_Node000003"><a xlink:href="user_8hpp.html" target="_top" xlink:title="Header file for User and Transaction models.">
<polygon fill="white" stroke="#666666" points="435.5,-74 329.5,-74 329.5,-55 435.5,-55 435.5,-74"/>
<text text-anchor="middle" x="382.5" y="-62" font-family="Helvetica,sans-Serif" font-size="10.00">../models/user.hpp</text>
</a>
</g>
</g>
<!-- Node2&#45;&gt;Node3 -->
<g id="edge2_Node000002_Node000003" class="edge">
<title>Node2&#45;&gt;Node3</title>
<g id="a_edge2_Node000002_Node000003"><a xlink:title=" ">
<path fill="none" stroke="#63b8ff" d="M338.25,-109.75C345.97,-102.03 357.4,-90.6 366.72,-81.28"/>
<polygon fill="#63b8ff" stroke="#63b8ff" points="369.31,-83.64 373.91,-74.09 364.36,-78.69 369.31,-83.64"/>
</a>
</g>
</g>
<!-- Node4 -->
<g id="Node000004" class="node">
<title>Node4</title>
<g id="a_Node000004"><a xlink:title=" ">
<polygon fill="#e0e0e0" stroke="#999999" points="229.5,-19 185.5,-19 185.5,0 229.5,0 229.5,-19"/>
<text text-anchor="middle" x="207.5" y="-7" font-family="Helvetica,sans-Serif" font-size="10.00">string</text>
</a>
</g>
</g>
<!-- Node2&#45;&gt;Node4 -->
<g id="edge7_Node000002_Node000004" class="edge">
<title>Node2&#45;&gt;Node4</title>
<g id="a_edge7_Node000002_Node000004"><a xlink:title=" ">
<path fill="none" stroke="#63b8ff" d="M324.63,-109.84C316.97,-96.77 301.03,-71.73 282.5,-55 268.58,-42.43 250.57,-31.61 235.69,-23.78"/>
<polygon fill="#63b8ff" stroke="#63b8ff" points="236.94,-20.49 226.44,-19.08 233.77,-26.73 236.94,-20.49"/>
</a>
</g>
</g>
<!-- Node7 -->
<g id="Node000007" class="node">
<title>Node7</title>
<g id="a_Node000007"><a xlink:title=" ">
<polygon fill="#e0e0e0" stroke="#999999" points="273.5,-74 235.5,-74 235.5,-55 273.5,-55 273.5,-74"/>
<text text-anchor="middle" x="254.5" y="-62" font-family="Helvetica,sans-Serif" font-size="10.00">map</text>
</a>
</g>
</g>
<!-- Node2&#45;&gt;Node7 -->
<g id="edge6_Node000002_Node000007" class="edge">
<title>Node2&#45;&gt;Node7</title>
<g id="a_edge6_Node000002_Node000007"><a xlink:title=" ">
<path fill="none" stroke="#63b8ff" d="M317.45,-109.98C306.04,-101.92 288.67,-89.65 275.07,-80.03"/>
<polygon fill="#63b8ff" stroke="#63b8ff" points="276.96,-77.08 266.77,-74.17 272.92,-82.8 276.96,-77.08"/>
</a>
</g>
</g>
<!-- Node3&#45;&gt;Node4 -->
<g id="edge3_Node000003_Node000004" class="edge">
<title>Node3&#45;&gt;Node4</title>
<g id="a_edge3_Node000003_Node000004"><a xlink:title=" ">
<path fill="none" stroke="#63b8ff" d="M354.38,-54.98C322.95,-45.46 272.16,-30.08 239.3,-20.13"/>
<polygon fill="#63b8ff" stroke="#63b8ff" points="240.3,-16.78 229.72,-17.23 238.27,-23.48 240.3,-16.78"/>
</a>
</g>
</g>
<!-- Node5 -->
<g id="Node000005" class="node">
<title>Node5</title>
<g id="a_Node000005"><a xlink:title=" ">
<polygon fill="#e0e0e0" stroke="#999999" points="357,-19 310,-19 310,0 357,0 357,-19"/>
<text text-anchor="middle" x="333.5" y="-7" font-family="Helvetica,sans-Serif" font-size="10.00">vector</text>
</a>
</g>
</g>
<!-- Node3&#45;&gt;Node5 -->
<g id="edge4_Node000003_Node000005" class="edge">
<title>Node3&#45;&gt;Node5</title>
<g id="a_edge4_Node000003_Node000005"><a xlink:title=" ">
<path fill="none" stroke="#63b8ff" d="M374.41,-54.75C367.34,-47.11 356.91,-35.82 348.35,-26.56"/>
<polygon fill="#63b8ff" stroke="#63b8ff" points="350.8,-24.06 341.44,-19.09 345.66,-28.81 350.8,-24.06"/>
</a>
</g>
</g>
<!-- Node6 -->
<g id="Node000006" class="node">
<title>Node6</title>
<g id="a_Node000006"><a xlink:title=" ">
<polygon fill="#e0e0e0" stroke="#999999" points="485.5,-19 375.5,-19 375.5,0 485.5,0 485.5,-19"/>
<text text-anchor="middle" x="430.5" y="-7" font-family="Helvetica,sans-Serif" font-size="10.00">nlohmann/json.hpp</text>
</a>
</g>
</g>
<!-- Node3&#45;&gt;Node6 -->
<g id="edge5_Node000003_Node000006" class="edge">
<title>Node3&#45;&gt;Node6</title>
<g id="a_edge5_Node000003_Node000006"><a xlink:title=" ">
<path fill="none" stroke="#63b8ff" d="M390.43,-54.75C397.35,-47.11 407.57,-35.82 415.95,-26.56"/>
<polygon fill="#63b8ff" stroke="#63b8ff" points="418.6,-28.85 422.72,-19.09 413.41,-24.15 418.6,-28.85"/>
</a>
</g>
</g>
<!-- Node8&#45;&gt;Node4 -->
<g id="edge9_Node000008_Node000004" class="edge">
<title>Node8&#45;&gt;Node4</title>
<g id="a_edge9_Node000008_Node000004"><a xlink:title=" ">
<path fill="none" stroke="#63b8ff" d="M72.37,-54.98C100.48,-45.73 145.42,-30.94 175.67,-20.98"/>
<polygon fill="#63b8ff" stroke="#63b8ff" points="176.92,-24.25 185.32,-17.8 174.73,-17.6 176.92,-24.25"/>
</a>
</g>
</g>
<!-- Node9&#45;&gt;Node3 -->
<g id="edge11_Node000009_Node000003" class="edge">
<title>Node9&#45;&gt;Node3</title>
<g id="a_edge11_Node000009_Node000003"><a xlink:title=" ">
<path fill="none" stroke="#63b8ff" d="M247.37,-109.98C274.28,-101.13 316.62,-87.19 346.73,-77.28"/>
<polygon fill="#63b8ff" stroke="#63b8ff" points="348.03,-80.53 356.43,-74.08 345.84,-73.88 348.03,-80.53"/>
</a>
</g>
</g>
<!-- Node9&#45;&gt;Node4 -->
<g id="edge13_Node000009_Node000004" class="edge">
<title>Node9&#45;&gt;Node4</title>
<g id="a_edge13_Node000009_Node000004"><a xlink:title=" ">
<path fill="none" stroke="#63b8ff" d="M220.35,-109.66C218.09,-92.17 212.98,-52.8 209.93,-29.27"/>
<polygon fill="#63b8ff" stroke="#63b8ff" points="213.38,-28.63 208.62,-19.16 206.44,-29.53 213.38,-28.63"/>
</a>
</g>
</g>
<!-- Node9&#45;&gt;Node7 -->
<g id="edge12_Node000009_Node000007" class="edge">
<title>Node9&#45;&gt;Node7</title>
<g id="a_edge12_Node000009_Node000007"><a xlink:title=" ">
<path fill="none" stroke="#63b8ff" d="M226.95,-109.75C231.51,-102.42 238.17,-91.73 243.79,-82.7"/>
<polygon fill="#63b8ff" stroke="#63b8ff" points="246.84,-84.43 249.15,-74.09 240.9,-80.73 246.84,-84.43"/>
</a>
</g>
</g>
<!-- Node10&#45;&gt;Node4 -->
<g id="edge15_Node000010_Node000004" class="edge">
<title>Node10&#45;&gt;Node4</title>
<g id="a_edge15_Node000010_Node000004"><a xlink:title=" ">
<path fill="none" stroke="#63b8ff" d="M155.46,-54.98C164.63,-47.15 178.44,-35.34 189.53,-25.86"/>
<polygon fill="#63b8ff" stroke="#63b8ff" points="192.03,-28.33 197.36,-19.17 187.48,-23.01 192.03,-28.33"/>
</a>
</g>
</g>
</g>
</svg>
