<?xml version="1.0" encoding="UTF-8" standalone="no"?>
<!DOCTYPE svg PUBLIC "-//W3C//DTD SVG 1.1//EN"
 "http://www.w3.org/Graphics/SVG/1.1/DTD/svg11.dtd">
<!-- Generated by graphviz version 2.43.0 (0)
 -->
<!-- Title: src/auth/auth.hpp Pages: 1 -->
<svg width="325pt" height="82pt"
 viewBox="0.00 0.00 325.00 82.00" xmlns="http://www.w3.org/2000/svg" xmlns:xlink="http://www.w3.org/1999/xlink">
<g id="graph0" class="graph" transform="scale(1 1) rotate(0) translate(4 78)">
<title>src/auth/auth.hpp</title>
<!-- Node1 -->
<g id="Node000001" class="node">
<title>Node1</title>
<g id="a_Node000001"><a xlink:title="Authentication module using libsodium for secure hashing.">
<polygon fill="#999999" stroke="#666666" points="220,-74 119,-74 119,-55 220,-55 220,-74"/>
<text text-anchor="middle" x="169.5" y="-62" font-family="Helvetica,sans-Serif" font-size="10.00">src/auth/auth.hpp</text>
</a>
</g>
</g>
<!-- Node2 -->
<g id="Node000002" class="node">
<title>Node2</title>
<g id="a_Node000002"><a xlink:href="auth_8cpp.html" target="_top" xlink:title="Implementation of sodium&#45;based authentication.">
<polygon fill="white" stroke="#666666" points="101,-19 0,-19 0,0 101,0 101,-19"/>
<text text-anchor="middle" x="50.5" y="-7" font-family="Helvetica,sans-Serif" font-size="10.00">src/auth/auth.cpp</text>
</a>
</g>
</g>
<!-- Node1&#45;&gt;Node2 -->
<g id="edge1_Node000001_Node000002" class="edge">
<title>Node1&#45;&gt;Node2</title>
<g id="a_edge1_Node000001_Node000002"><a xlink:title=" ">
<path fill="none" stroke="#63b8ff" d="M141.2,-50.9C119.22,-41.11 89.32,-27.79 69.97,-19.17"/>
<polygon fill="#63b8ff" stroke="#63b8ff" points="139.82,-54.11 150.38,-54.98 142.67,-47.72 139.82,-54.11"/>
</a>
</g>
</g>
<!-- Node3 -->
<g id="Node000003" class="node">
<title>Node3</title>
<g id="a_Node000003"><a xlink:href="atm_8cpp.html" target="_top" xlink:title="Implementation of the main ATM system controller logic.">
<polygon fill="white" stroke="#666666" points="219.5,-19 119.5,-19 119.5,0 219.5,0 219.5,-19"/>
<text text-anchor="middle" x="169.5" y="-7" font-family="Helvetica,sans-Serif" font-size="10.00">src/logic/atm.cpp</text>
</a>
</g>
</g>
<!-- Node1&#45;&gt;Node3 -->
<g id="edge2_Node000001_Node000003" class="edge">
<title>Node1&#45;&gt;Node3</title>
<g id="a_edge2_Node000001_Node000003"><a xlink:title=" ">
<path fill="none" stroke="#63b8ff" d="M169.5,-44.66C169.5,-35.93 169.5,-25.99 169.5,-19.09"/>
<polygon fill="#63b8ff" stroke="#63b8ff" points="166,-44.75 169.5,-54.75 173,-44.75 166,-44.75"/>
</a>
</g>
</g>
<!-- Node4 -->
<g id="Node000004" class="node">
<title>Node4</title>
<g id="a_Node000004"><a xlink:href="main_8cpp.html" target="_top" xlink:title="Entry point for the secure ATM simulator application.">
<polygon fill="white" stroke="#666666" points="317,-19 238,-19 238,0 317,0 317,-19"/>
<text text-anchor="middle" x="277.5" y="-7" font-family="Helvetica,sans-Serif" font-size="10.00">src/main.cpp</text>
</a>
</g>
</g>
<!-- Node1&#45;&gt;Node4 -->
<g id="edge3_Node000001_Node000004" class="edge">
<title>Node1&#45;&gt;Node4</title>
<g id="a_edge3_Node000001_Node000004"><a xlink:title=" ">
<path fill="none" stroke="#63b8ff" d="M195.99,-50.5C215.86,-40.75 242.5,-27.68 259.83,-19.17"/>
<polygon fill="#63b8ff" stroke="#63b8ff" points="194.29,-47.44 186.85,-54.98 197.37,-53.72 194.29,-47.44"/>
</a>
</g>
</g>
</g>
</svg>
