<?xml version="1.0" encoding="UTF-8" standalone="no"?>
<!DOCTYPE svg PUBLIC "-//W3C//DTD SVG 1.1//EN"
 "http://www.w3.org/Graphics/SVG/1.1/DTD/svg11.dtd">
<!-- Generated by graphviz version 2.43.0 (0)
 -->
<!-- Title: User::from_json Pages: 1 -->
<svg width="420pt" height="27pt"
 viewBox="0.00 0.00 420.00 27.00" xmlns="http://www.w3.org/2000/svg" xmlns:xlink="http://www.w3.org/1999/xlink">
<g id="graph0" class="graph" transform="scale(1 1) rotate(0) translate(4 23)">
<title>User::from_json</title>
<!-- Node1 -->
<g id="Node000001" class="node">
<title>Node1</title>
<g id="a_Node000001"><a xlink:title="Deserializes User object from JSON format.">
<polygon fill="#999999" stroke="#666666" points="412,-19 318,-19 318,0 412,0 412,-19"/>
<text text-anchor="middle" x="365" y="-7" font-family="Helvetica,sans-Serif" font-size="10.00">User::from_json</text>
</a>
</g>
</g>
<!-- Node2 -->
<g id="Node000002" class="node">
<title>Node2</title>
<g id="a_Node000002"><a xlink:href="namespacestorage.html#a0f45608d29f44c9893d6da00ba811eae" target="_top" xlink:title="Loads user records from a JSON file.">
<polygon fill="white" stroke="#666666" points="282,-19 174,-19 174,0 282,0 282,-19"/>
<text text-anchor="middle" x="228" y="-7" font-family="Helvetica,sans-Serif" font-size="10.00">storage::loadUsers</text>
</a>
</g>
</g>
<!-- Node1&#45;&gt;Node2 -->
<g id="edge1_Node000001_Node000002" class="edge">
<title>Node1&#45;&gt;Node2</title>
<g id="a_edge1_Node000001_Node000002"><a xlink:title=" ">
<path fill="none" stroke="#63b8ff" d="M307.79,-9.5C299.36,-9.5 290.68,-9.5 282.31,-9.5"/>
<polygon fill="#63b8ff" stroke="#63b8ff" points="307.92,-13 317.92,-9.5 307.92,-6 307.92,-13"/>
</a>
</g>
</g>
<!-- Node3 -->
<g id="Node000003" class="node">
<title>Node3</title>
<g id="a_Node000003"><a xlink:href="classATMSystem.html#ad1bf3c3d5de5266cfdab48a66240d8df" target="_top" xlink:title="Constructs the ATM system and loads users from file.">
<polygon fill="white" stroke="#666666" points="138,-19 0,-19 0,0 138,0 138,-19"/>
<text text-anchor="middle" x="69" y="-7" font-family="Helvetica,sans-Serif" font-size="10.00">ATMSystem::ATMSystem</text>
</a>
</g>
</g>
<!-- Node2&#45;&gt;Node3 -->
<g id="edge2_Node000002_Node000003" class="edge">
<title>Node2&#45;&gt;Node3</title>
<g id="a_edge2_Node000002_Node000003"><a xlink:title=" ">
<path fill="none" stroke="#63b8ff" d="M163.72,-9.5C155.3,-9.5 146.63,-9.5 138.13,-9.5"/>
<polygon fill="#63b8ff" stroke="#63b8ff" points="163.85,-13 173.85,-9.5 163.85,-6 163.85,-13"/>
</a>
</g>
</g>
</g>
</svg>
