<?xml version="1.0" encoding="UTF-8" standalone="no"?>
<!DOCTYPE svg PUBLIC "-//W3C//DTD SVG 1.1//EN"
 "http://www.w3.org/Graphics/SVG/1.1/DTD/svg11.dtd">
<!-- Generated by graphviz version 2.43.0 (0)
 -->
<!-- Title: AuthTest Pages: 1 -->
<svg width="78pt" height="142pt"
 viewBox="0.00 0.00 78.00 142.00" xmlns="http://www.w3.org/2000/svg" xmlns:xlink="http://www.w3.org/1999/xlink">

<svg id="main" version="1.1" xmlns="http://www.w3.org/2000/svg" xmlns:xlink="http://www.w3.org/1999/xlink" xml:space="preserve" onload="init(evt)">
<style type="text/css"><![CDATA[
.node, .edge {opacity: 0.7;}
.node.selected, .edge.selected {opacity: 1;}
.edge:hover path { stroke: red; }
.edge:hover polygon { stroke: red; fill: red; }
]]></style>
<script type="application/ecmascript" xlink:href="svg.min.js"/>
<svg id="graph" class="graph">
<g id="graph0" class="graph" transform="scale(1 1) rotate(0) translate(4 138)">
<title>AuthTest</title>
<!-- Node1 -->
<g id="Node000001" class="node">
<title>Node1</title>
<g id="a_Node000001"><a xlink:title=" ">
<polygon fill="#999999" stroke="transparent" points="64,-49 6,-49 6,0 64,0 64,-49"/>
<text text-anchor="start" x="13.5" y="-36.5" font-family="Helvetica,sans-Serif" font-size="10.00">AuthTest</text>
<text text-anchor="start" x="33" y="-21.5" font-family="Helvetica,sans-Serif" font-size="10.00"> </text>
<text text-anchor="start" x="10" y="-6.5" font-family="Helvetica,sans-Serif" font-size="10.00">#</text>
<text text-anchor="start" x="23" y="-6.5" font-family="Helvetica,sans-Serif" font-size="10.00">SetUp()</text>
<polygon fill="#666666" stroke="#666666" points="6,-31.5 6,-31.5 64,-31.5 64,-31.5 6,-31.5"/>
<polygon fill="#666666" stroke="#666666" points="6,-16.5 6,-16.5 64,-16.5 64,-16.5 6,-16.5"/>
<polygon fill="none" stroke="#666666" points="6,0 6,-49 64,-49 64,0 6,0"/>
</a>
</g>
</g>
<!-- Node2 -->
<g id="Node000002" class="node">
<title>Node2</title>
<g id="a_Node000002"><a xlink:title=" ">
<polygon fill="white" stroke="transparent" points="70,-134 0,-134 0,-85 70,-85 70,-134"/>
<text text-anchor="start" x="5" y="-121.5" font-family="Helvetica,sans-Serif" font-size="10.00">testing::Test</text>
<text text-anchor="start" x="33" y="-106.5" font-family="Helvetica,sans-Serif" font-size="10.00"> </text>
<text text-anchor="start" x="33" y="-91.5" font-family="Helvetica,sans-Serif" font-size="10.00"> </text>
<polygon fill="#bfbfbf" stroke="#bfbfbf" points="0,-116.5 0,-116.5 70,-116.5 70,-116.5 0,-116.5"/>
<polygon fill="#bfbfbf" stroke="#bfbfbf" points="0,-101.5 0,-101.5 70,-101.5 70,-101.5 0,-101.5"/>
<polygon fill="none" stroke="#bfbfbf" points="0,-85 0,-134 70,-134 70,-85 0,-85"/>
</a>
</g>
</g>
<!-- Node2&#45;&gt;Node1 -->
<g id="edge1_Node000001_Node000002" class="edge">
<title>Node2&#45;&gt;Node1</title>
<g id="a_edge1_Node000001_Node000002"><a xlink:title=" ">
<path fill="none" stroke="#63b8ff" d="M35,-74.77C35,-66.17 35,-57.1 35,-49.12"/>
<polygon fill="none" stroke="#63b8ff" points="31.5,-74.94 35,-84.94 38.5,-74.94 31.5,-74.94"/>
</a>
</g>
</g>
</g>
</svg>
</svg>

<style type='text/css'>
<![CDATA[
[data-mouse-over-selected='false'] { opacity: 0.7; }
[data-mouse-over-selected='true']  { opacity: 1.0; }
]]>
</style>
<script type="application/ecmascript"><![CDATA[
document.addEventListener('DOMContentLoaded', (event) => {
  highlightEdges();
  highlightAdjacentNodes();
});
]]></script>
</svg>
