<?xml version="1.0" encoding="UTF-8" standalone="no"?>
<!DOCTYPE svg PUBLIC "-//W3C//DTD SVG 1.1//EN"
 "http://www.w3.org/Graphics/SVG/1.1/DTD/svg11.dtd">
<!-- Generated by graphviz version 2.43.0 (0)
 -->
<!-- Title: src Pages: 1 -->
<svg width="217pt" height="224pt"
 viewBox="0.00 0.00 217.00 224.00" xmlns="http://www.w3.org/2000/svg" xmlns:xlink="http://www.w3.org/1999/xlink">
<g id="graph0" class="graph" transform="scale(1 1) rotate(0) translate(4 220)">
<title>src</title>
<g id="clust1" class="cluster">
<title>clusterdir_68267d1309a1af8e8297ef4c3efbcdba</title>
<g id="a_clust1"><a xlink:href="dir_68267d1309a1af8e8297ef4c3efbcdba.html" target="_top">
<polygon fill="#edf0f7" stroke="#404040" stroke-width="2" points="8,-8 8,-208 201,-208 201,-8 8,-8"/>
</a>
</g>
</g>
<!-- dir_68267d1309a1af8e8297ef4c3efbcdba -->
<g id="node1" class="node">
<title>dir_68267d1309a1af8e8297ef4c3efbcdba</title>
<text text-anchor="middle" x="54" y="-188" font-family="Helvetica,sans-Serif" font-size="10.00">src</text>
</g>
<!-- dir_ecb37285c0bc658c97bb749f37c59e79 -->
<g id="node2" class="node">
<title>dir_ecb37285c0bc658c97bb749f37c59e79</title>
<g id="a_node2"><a xlink:href="dir_ecb37285c0bc658c97bb749f37c59e79.html" target="_top" xlink:title="auth">
<polygon fill="#a2b4d6" stroke="#404040" points="54,-90 16,-90 16,-71 54,-71 54,-90"/>
<text text-anchor="middle" x="35" y="-78" font-family="Helvetica,sans-Serif" font-size="10.00">auth</text>
</a>
</g>
</g>
<!-- dir_68267d1309a1af8e8297ef4c3efbcdba&#45;&gt;dir_ecb37285c0bc658c97bb749f37c59e79 -->
<g id="edge2" class="edge">
<title>dir_68267d1309a1af8e8297ef4c3efbcdba&#45;&gt;dir_ecb37285c0bc658c97bb749f37c59e79</title>
<g id="a_edge2"><a xlink:href="dir_000004_000000.html" target="_top">
<path fill="none" stroke="#63b8ff" d="M52.16,-180.99C50.26,-172.05 47.26,-157.57 45,-145 42.31,-130.03 39.65,-113 37.75,-100.35"/>
<polygon fill="#63b8ff" stroke="#63b8ff" points="41.17,-99.53 36.24,-90.15 34.24,-100.55 41.17,-99.53"/>
</a>
</g>
<g id="a_edge2&#45;headlabel"><a xlink:href="dir_000004_000000.html" target="_top" xlink:title="2">
<text text-anchor="middle" x="44.5" y="-100.17" font-family="Helvetica,sans-Serif" font-size="10.00" fill="#63b8ff">2</text>
</a>
</g>
</g>
<!-- dir_3d2e4578fe4cc3b7fa6177047437af5b -->
<g id="node3" class="node">
<title>dir_3d2e4578fe4cc3b7fa6177047437af5b</title>
<g id="a_node3"><a xlink:href="dir_3d2e4578fe4cc3b7fa6177047437af5b.html" target="_top" xlink:title="logic">
<polygon fill="#a2b4d6" stroke="#404040" points="94,-145 54,-145 54,-126 94,-126 94,-145"/>
<text text-anchor="middle" x="74" y="-133" font-family="Helvetica,sans-Serif" font-size="10.00">logic</text>
</a>
</g>
</g>
<!-- dir_68267d1309a1af8e8297ef4c3efbcdba&#45;&gt;dir_3d2e4578fe4cc3b7fa6177047437af5b -->
<g id="edge1" class="edge">
<title>dir_68267d1309a1af8e8297ef4c3efbcdba&#45;&gt;dir_3d2e4578fe4cc3b7fa6177047437af5b</title>
<g id="a_edge1"><a xlink:href="dir_000004_000002.html" target="_top">
<path fill="none" stroke="#63b8ff" d="M57.3,-180.75C59.98,-173.65 63.85,-163.4 67.19,-154.56"/>
<polygon fill="#63b8ff" stroke="#63b8ff" points="70.5,-155.68 70.76,-145.09 63.95,-153.21 70.5,-155.68"/>
</a>
</g>
<g id="a_edge1&#45;headlabel"><a xlink:href="dir_000004_000002.html" target="_top" xlink:title="1">
<text text-anchor="middle" x="71.89" y="-157.55" font-family="Helvetica,sans-Serif" font-size="10.00" fill="#63b8ff">1</text>
</a>
</g>
</g>
<!-- dir_3d2e4578fe4cc3b7fa6177047437af5b&#45;&gt;dir_ecb37285c0bc658c97bb749f37c59e79 -->
<g id="edge6" class="edge">
<title>dir_3d2e4578fe4cc3b7fa6177047437af5b&#45;&gt;dir_ecb37285c0bc658c97bb749f37c59e79</title>
<g id="a_edge6"><a xlink:href="dir_000002_000000.html" target="_top">
<path fill="none" stroke="#63b8ff" d="M67.56,-125.75C62.11,-118.34 54.14,-107.5 47.44,-98.41"/>
<polygon fill="#63b8ff" stroke="#63b8ff" points="50.07,-96.07 41.32,-90.09 44.43,-100.22 50.07,-96.07"/>
</a>
</g>
<g id="a_edge6&#45;headlabel"><a xlink:href="dir_000002_000000.html" target="_top" xlink:title="1">
<text text-anchor="middle" x="54.48" y="-94.78" font-family="Helvetica,sans-Serif" font-size="10.00" fill="#63b8ff">1</text>
</a>
</g>
</g>
<!-- dir_bdeba5f06b852fec80257c0bf4c3c36e -->
<g id="node4" class="node">
<title>dir_bdeba5f06b852fec80257c0bf4c3c36e</title>
<g id="a_node4"><a xlink:href="dir_bdeba5f06b852fec80257c0bf4c3c36e.html" target="_top" xlink:title="models">
<polygon fill="#a2b4d6" stroke="#404040" points="122.5,-35 69.5,-35 69.5,-16 122.5,-16 122.5,-35"/>
<text text-anchor="middle" x="96" y="-23" font-family="Helvetica,sans-Serif" font-size="10.00">models</text>
</a>
</g>
</g>
<!-- dir_3d2e4578fe4cc3b7fa6177047437af5b&#45;&gt;dir_bdeba5f06b852fec80257c0bf4c3c36e -->
<g id="edge4" class="edge">
<title>dir_3d2e4578fe4cc3b7fa6177047437af5b&#45;&gt;dir_bdeba5f06b852fec80257c0bf4c3c36e</title>
<g id="a_edge4"><a xlink:href="dir_000002_000003.html" target="_top">
<path fill="none" stroke="#63b8ff" d="M75.07,-125.82C76.64,-113.54 79.86,-90.43 84,-71 85.83,-62.39 88.31,-52.96 90.53,-45.01"/>
<polygon fill="#63b8ff" stroke="#63b8ff" points="93.92,-45.88 93.33,-35.3 87.2,-43.94 93.92,-45.88"/>
</a>
</g>
<g id="a_edge4&#45;headlabel"><a xlink:href="dir_000002_000003.html" target="_top" xlink:title="1">
<text text-anchor="middle" x="95.66" y="-47.62" font-family="Helvetica,sans-Serif" font-size="10.00" fill="#63b8ff">1</text>
</a>
</g>
</g>
<!-- dir_452baf35e1d7639c9f2a5ece4ec85855 -->
<g id="node5" class="node">
<title>dir_452baf35e1d7639c9f2a5ece4ec85855</title>
<g id="a_node5"><a xlink:href="dir_452baf35e1d7639c9f2a5ece4ec85855.html" target="_top" xlink:title="storage">
<polygon fill="#a2b4d6" stroke="#404040" points="145.5,-90 92.5,-90 92.5,-71 145.5,-71 145.5,-90"/>
<text text-anchor="middle" x="119" y="-78" font-family="Helvetica,sans-Serif" font-size="10.00">storage</text>
</a>
</g>
</g>
<!-- dir_3d2e4578fe4cc3b7fa6177047437af5b&#45;&gt;dir_452baf35e1d7639c9f2a5ece4ec85855 -->
<g id="edge3" class="edge">
<title>dir_3d2e4578fe4cc3b7fa6177047437af5b&#45;&gt;dir_452baf35e1d7639c9f2a5ece4ec85855</title>
<g id="a_edge3"><a xlink:href="dir_000002_000005.html" target="_top">
<path fill="none" stroke="#63b8ff" d="M81.43,-125.75C87.85,-118.18 97.31,-107.05 105.12,-97.84"/>
<polygon fill="#63b8ff" stroke="#63b8ff" points="107.9,-99.98 111.71,-90.09 102.57,-95.45 107.9,-99.98"/>
</a>
</g>
<g id="a_edge3&#45;headlabel"><a xlink:href="dir_000002_000005.html" target="_top" xlink:title="1">
<text text-anchor="middle" x="107.74" y="-102.06" font-family="Helvetica,sans-Serif" font-size="10.00" fill="#63b8ff">1</text>
</a>
</g>
</g>
<!-- dir_da5c6b39c0a2f54e57df6799511cd3ab -->
<g id="node6" class="node">
<title>dir_da5c6b39c0a2f54e57df6799511cd3ab</title>
<g id="a_node6"><a xlink:href="dir_da5c6b39c0a2f54e57df6799511cd3ab.html" target="_top" xlink:title="ui">
<polygon fill="#a2b4d6" stroke="#404040" points="192.5,-90 163.5,-90 163.5,-71 192.5,-71 192.5,-90"/>
<text text-anchor="middle" x="178" y="-78" font-family="Helvetica,sans-Serif" font-size="10.00">ui</text>
</a>
</g>
</g>
<!-- dir_3d2e4578fe4cc3b7fa6177047437af5b&#45;&gt;dir_da5c6b39c0a2f54e57df6799511cd3ab -->
<g id="edge5" class="edge">
<title>dir_3d2e4578fe4cc3b7fa6177047437af5b&#45;&gt;dir_da5c6b39c0a2f54e57df6799511cd3ab</title>
<g id="a_edge5"><a xlink:href="dir_000002_000007.html" target="_top">
<path fill="none" stroke="#63b8ff" d="M90.71,-125.98C107.9,-117.22 134.84,-103.5 154.24,-93.61"/>
<polygon fill="#63b8ff" stroke="#63b8ff" points="156.03,-96.63 163.35,-88.97 152.85,-90.39 156.03,-96.63"/>
</a>
</g>
<g id="a_edge5&#45;headlabel"><a xlink:href="dir_000002_000007.html" target="_top" xlink:title="1">
<text text-anchor="middle" x="154.12" y="-98.29" font-family="Helvetica,sans-Serif" font-size="10.00" fill="#63b8ff">1</text>
</a>
</g>
</g>
<!-- dir_452baf35e1d7639c9f2a5ece4ec85855&#45;&gt;dir_bdeba5f06b852fec80257c0bf4c3c36e -->
<g id="edge7" class="edge">
<title>dir_452baf35e1d7639c9f2a5ece4ec85855&#45;&gt;dir_bdeba5f06b852fec80257c0bf4c3c36e</title>
<g id="a_edge7"><a xlink:href="dir_000005_000003.html" target="_top">
<path fill="none" stroke="#63b8ff" d="M115.2,-70.75C112.09,-63.57 107.58,-53.18 103.71,-44.27"/>
<polygon fill="#63b8ff" stroke="#63b8ff" points="106.92,-42.87 99.73,-35.09 100.5,-45.66 106.92,-42.87"/>
</a>
</g>
<g id="a_edge7&#45;headlabel"><a xlink:href="dir_000005_000003.html" target="_top" xlink:title="1">
<text text-anchor="middle" x="110.95" y="-42.54" font-family="Helvetica,sans-Serif" font-size="10.00" fill="#63b8ff">1</text>
</a>
</g>
</g>
</g>
</svg>
