<?xml version="1.0" encoding="UTF-8" standalone="no"?>
<!DOCTYPE svg PUBLIC "-//W3C//DTD SVG 1.1//EN"
 "http://www.w3.org/Graphics/SVG/1.1/DTD/svg11.dtd">
<!-- Generated by graphviz version 2.43.0 (0)
 -->
<!-- Title: Graphical Class Hierarchy Pages: 1 -->
<svg width="182pt" height="64pt"
 viewBox="0.00 0.00 182.00 64.00" xmlns="http://www.w3.org/2000/svg" xmlns:xlink="http://www.w3.org/1999/xlink">
<g id="graph0" class="graph" transform="scale(1 1) rotate(0) translate(4 60)">
<title>Graphical Class Hierarchy</title>
<!-- Node0 -->
<g id="Node000000" class="node">
<title>Node0</title>
<g id="a_Node000000"><a xlink:title=" ">
<polygon fill="#e0e0e0" stroke="#999999" points="76,-37 0,-37 0,-18 76,-18 76,-37"/>
<text text-anchor="middle" x="38" y="-25" font-family="Helvetica,sans-Serif" font-size="10.00">testing::Test</text>
</a>
</g>
</g>
<!-- Node1 -->
<g id="Node000001" class="node">
<title>Node1</title>
<g id="a_Node000001"><a xlink:href="classAuthTest.html" target="_top" xlink:title=" ">
<polygon fill="white" stroke="#666666" points="172.5,-56 113.5,-56 113.5,-37 172.5,-37 172.5,-56"/>
<text text-anchor="middle" x="143" y="-44" font-family="Helvetica,sans-Serif" font-size="10.00">AuthTest</text>
</a>
</g>
</g>
<!-- Node0&#45;&gt;Node1 -->
<g id="edge1_Node000000_Node000001" class="edge">
<title>Node0&#45;&gt;Node1</title>
<g id="a_edge1_Node000000_Node000001"><a xlink:title=" ">
<path fill="none" stroke="#63b8ff" d="M86.11,-36.19C95.38,-37.9 104.84,-39.64 113.27,-41.2"/>
<polygon fill="#63b8ff" stroke="#63b8ff" points="86.65,-32.73 76.19,-34.36 85.38,-39.62 86.65,-32.73"/>
</a>
</g>
</g>
<!-- Node2 -->
<g id="Node000002" class="node">
<title>Node2</title>
<g id="a_Node000002"><a xlink:href="classLogicTest.html" target="_top" xlink:title=" ">
<polygon fill="white" stroke="#666666" points="174,-19 112,-19 112,0 174,0 174,-19"/>
<text text-anchor="middle" x="143" y="-7" font-family="Helvetica,sans-Serif" font-size="10.00">LogicTest</text>
</a>
</g>
</g>
<!-- Node0&#45;&gt;Node2 -->
<g id="edge2_Node000000_Node000002" class="edge">
<title>Node0&#45;&gt;Node2</title>
<g id="a_edge2_Node000000_Node000002"><a xlink:title=" ">
<path fill="none" stroke="#63b8ff" d="M86.3,-19.23C95.03,-17.71 103.92,-16.15 111.97,-14.75"/>
<polygon fill="#63b8ff" stroke="#63b8ff" points="85.43,-15.83 76.19,-21 86.64,-22.73 85.43,-15.83"/>
</a>
</g>
</g>
</g>
</svg>
