<?xml version="1.0" encoding="UTF-8" standalone="no"?>
<!DOCTYPE svg PUBLIC "-//W3C//DTD SVG 1.1//EN"
 "http://www.w3.org/Graphics/SVG/1.1/DTD/svg11.dtd">
<!-- Generated by graphviz version 2.43.0 (0)
 -->
<!-- Title: main Pages: 1 -->
<svg width="505pt" height="138pt"
 viewBox="0.00 0.00 505.00 138.00" xmlns="http://www.w3.org/2000/svg" xmlns:xlink="http://www.w3.org/1999/xlink">
<g id="graph0" class="graph" transform="scale(1 1) rotate(0) translate(4 134)">
<title>main</title>
<!-- Node1 -->
<g id="Node000001" class="node">
<title>Node1</title>
<g id="a_Node000001"><a xlink:title="Main function.">
<polygon fill="#999999" stroke="#666666" points="41,-92 0,-92 0,-73 41,-73 41,-92"/>
<text text-anchor="middle" x="20.5" y="-80" font-family="Helvetica,sans-Serif" font-size="10.00">main</text>
</a>
</g>
</g>
<!-- Node2 -->
<g id="Node000002" class="node">
<title>Node2</title>
<g id="a_Node000002"><a xlink:href="namespaceauth.html#a42335469b7ba8836f9bace5979ac96c8" target="_top" xlink:title="Initializes the sodium library.">
<polygon fill="white" stroke="#666666" points="155,-111 95,-111 95,-92 155,-92 155,-111"/>
<text text-anchor="middle" x="125" y="-99" font-family="Helvetica,sans-Serif" font-size="10.00">auth::init</text>
</a>
</g>
</g>
<!-- Node1&#45;&gt;Node2 -->
<g id="edge1_Node000001_Node000002" class="edge">
<title>Node1&#45;&gt;Node2</title>
<g id="a_edge1_Node000001_Node000002"><a xlink:title=" ">
<path fill="none" stroke="#63b8ff" d="M41.26,-86.16C53.65,-88.46 70.04,-91.5 84.96,-94.26"/>
<polygon fill="#63b8ff" stroke="#63b8ff" points="84.52,-97.74 94.99,-96.12 85.79,-90.86 84.52,-97.74"/>
</a>
</g>
</g>
<!-- Node3 -->
<g id="Node000003" class="node">
<title>Node3</title>
<g id="a_Node000003"><a xlink:href="classATMSystem.html#a9e1bc1bb65252e003f32934657bcc2f8" target="_top" xlink:title="Starts the main application execution loop.">
<polygon fill="white" stroke="#666666" points="173,-74 77,-74 77,-55 173,-55 173,-74"/>
<text text-anchor="middle" x="125" y="-62" font-family="Helvetica,sans-Serif" font-size="10.00">ATMSystem::run</text>
</a>
</g>
</g>
<!-- Node1&#45;&gt;Node3 -->
<g id="edge2_Node000001_Node000003" class="edge">
<title>Node1&#45;&gt;Node3</title>
<g id="a_edge2_Node000001_Node000003"><a xlink:title=" ">
<path fill="none" stroke="#63b8ff" d="M41.26,-79.03C48.7,-77.72 57.57,-76.17 66.71,-74.56"/>
<polygon fill="#63b8ff" stroke="#63b8ff" points="67.43,-77.99 76.67,-72.81 66.21,-71.09 67.43,-77.99"/>
</a>
</g>
</g>
<!-- Node4 -->
<g id="Node000004" class="node">
<title>Node4</title>
<g id="a_Node000004"><a xlink:href="classATMSystem.html#a7f92ef154fb83df82f9674c3a4384236" target="_top" xlink:title="Securely adds a new user to the system.">
<polygon fill="white" stroke="#666666" points="336.5,-130 215.5,-130 215.5,-111 336.5,-111 336.5,-130"/>
<text text-anchor="middle" x="276" y="-118" font-family="Helvetica,sans-Serif" font-size="10.00">ATMSystem::addUser</text>
</a>
</g>
</g>
<!-- Node3&#45;&gt;Node4 -->
<g id="edge3_Node000003_Node000004" class="edge">
<title>Node3&#45;&gt;Node4</title>
<g id="a_edge3_Node000003_Node000004"><a xlink:title=" ">
<path fill="none" stroke="#63b8ff" d="M151.08,-74.09C158.23,-76.97 165.98,-80.24 173,-83.5 189.41,-91.12 192.17,-95.86 209,-102.5 214.04,-104.49 219.38,-106.34 224.75,-108.04"/>
<polygon fill="#63b8ff" stroke="#63b8ff" points="223.82,-111.42 234.4,-110.94 225.83,-104.71 223.82,-111.42"/>
</a>
</g>
</g>
<!-- Node6 -->
<g id="Node000006" class="node">
<title>Node6</title>
<g id="a_Node000006"><a xlink:href="namespaceui.html#aea0f52471194711a1293459820e9a66a" target="_top" xlink:title="Prompts the user to press enter to continue.">
<polygon fill="white" stroke="#666666" points="337.5,-93 214.5,-93 214.5,-74 337.5,-74 337.5,-93"/>
<text text-anchor="middle" x="276" y="-81" font-family="Helvetica,sans-Serif" font-size="10.00">ui::pauseAndContinue</text>
</a>
</g>
</g>
<!-- Node3&#45;&gt;Node6 -->
<g id="edge5_Node000003_Node000006" class="edge">
<title>Node3&#45;&gt;Node6</title>
<g id="a_edge5_Node000003_Node000006"><a xlink:title=" ">
<path fill="none" stroke="#63b8ff" d="M173.14,-70.51C183.03,-71.77 193.66,-73.13 204.19,-74.47"/>
<polygon fill="#63b8ff" stroke="#63b8ff" points="203.87,-77.96 214.23,-75.75 204.76,-71.01 203.87,-77.96"/>
</a>
</g>
</g>
<!-- Node7 -->
<g id="Node000007" class="node">
<title>Node7</title>
<g id="a_Node000007"><a xlink:href="namespaceui.html#ac1fc8a951e1e49e48d534abea9df4a47" target="_top" xlink:title="Prints a formatted header with a title.">
<polygon fill="white" stroke="#666666" points="320.5,-56 231.5,-56 231.5,-37 320.5,-37 320.5,-56"/>
<text text-anchor="middle" x="276" y="-44" font-family="Helvetica,sans-Serif" font-size="10.00">ui::printHeader</text>
</a>
</g>
</g>
<!-- Node3&#45;&gt;Node7 -->
<g id="edge6_Node000003_Node000007" class="edge">
<title>Node3&#45;&gt;Node7</title>
<g id="a_edge6_Node000003_Node000007"><a xlink:title=" ">
<path fill="none" stroke="#63b8ff" d="M173.14,-58.8C188.46,-56.95 205.57,-54.89 221.33,-52.98"/>
<polygon fill="#63b8ff" stroke="#63b8ff" points="221.94,-56.43 231.45,-51.76 221.1,-49.49 221.94,-56.43"/>
</a>
</g>
</g>
<!-- Node9 -->
<g id="Node000009" class="node">
<title>Node9</title>
<g id="a_Node000009"><a xlink:href="classATMSystem.html#acce45e35e58d9d909c5ff3f6756c017e" target="_top" xlink:title="Verifies login credentials.">
<polygon fill="white" stroke="#666666" points="343,-19 209,-19 209,0 343,0 343,-19"/>
<text text-anchor="middle" x="276" y="-7" font-family="Helvetica,sans-Serif" font-size="10.00">ATMSystem::verifyLogin</text>
</a>
</g>
</g>
<!-- Node3&#45;&gt;Node9 -->
<g id="edge8_Node000003_Node000009" class="edge">
<title>Node3&#45;&gt;Node9</title>
<g id="a_edge8_Node000003_Node000009"><a xlink:title=" ">
<path fill="none" stroke="#63b8ff" d="M146.17,-54.88C162.8,-47.16 187.12,-36.36 209,-28.5 215.41,-26.2 222.24,-23.98 228.99,-21.92"/>
<polygon fill="#63b8ff" stroke="#63b8ff" points="230.17,-25.22 238.76,-19.02 228.18,-18.51 230.17,-25.22"/>
</a>
</g>
</g>
<!-- Node5 -->
<g id="Node000005" class="node">
<title>Node5</title>
<g id="a_Node000005"><a xlink:href="namespaceauth.html#a66b55b8603ce2214924d902c0dd90ba7" target="_top" xlink:title="Securely hashes a password.">
<polygon fill="white" stroke="#666666" points="494.5,-130 381.5,-130 381.5,-111 494.5,-111 494.5,-130"/>
<text text-anchor="middle" x="438" y="-118" font-family="Helvetica,sans-Serif" font-size="10.00">auth::hashPassword</text>
</a>
</g>
</g>
<!-- Node4&#45;&gt;Node5 -->
<g id="edge4_Node000004_Node000005" class="edge">
<title>Node4&#45;&gt;Node5</title>
<g id="a_edge4_Node000004_Node000005"><a xlink:title=" ">
<path fill="none" stroke="#63b8ff" d="M336.58,-120.5C347.8,-120.5 359.6,-120.5 371.01,-120.5"/>
<polygon fill="#63b8ff" stroke="#63b8ff" points="371.35,-124 381.35,-120.5 371.35,-117 371.35,-124"/>
</a>
</g>
</g>
<!-- Node8 -->
<g id="Node000008" class="node">
<title>Node8</title>
<g id="a_Node000008"><a xlink:href="namespaceui.html#a4ca64204ce1619b278509298d44f0ece" target="_top" xlink:title="Clears the console window.">
<polygon fill="white" stroke="#666666" points="482.5,-56 393.5,-56 393.5,-37 482.5,-37 482.5,-56"/>
<text text-anchor="middle" x="438" y="-44" font-family="Helvetica,sans-Serif" font-size="10.00">ui::clearScreen</text>
</a>
</g>
</g>
<!-- Node7&#45;&gt;Node8 -->
<g id="edge7_Node000007_Node000008" class="edge">
<title>Node7&#45;&gt;Node8</title>
<g id="a_edge7_Node000007_Node000008"><a xlink:title=" ">
<path fill="none" stroke="#63b8ff" d="M320.72,-46.5C340.03,-46.5 362.93,-46.5 383.27,-46.5"/>
<polygon fill="#63b8ff" stroke="#63b8ff" points="383.33,-50 393.33,-46.5 383.33,-43 383.33,-50"/>
</a>
</g>
</g>
<!-- Node10 -->
<g id="Node000010" class="node">
<title>Node10</title>
<g id="a_Node000010"><a xlink:href="namespaceauth.html#a999ec75b390ae89517bca08df7fb47e5" target="_top" xlink:title="Verifies a password against a stored hash.">
<polygon fill="white" stroke="#666666" points="497,-19 379,-19 379,0 497,0 497,-19"/>
<text text-anchor="middle" x="438" y="-7" font-family="Helvetica,sans-Serif" font-size="10.00">auth::verifyPassword</text>
</a>
</g>
</g>
<!-- Node9&#45;&gt;Node10 -->
<g id="edge9_Node000009_Node000010" class="edge">
<title>Node9&#45;&gt;Node10</title>
<g id="a_edge9_Node000009_Node000010"><a xlink:title=" ">
<path fill="none" stroke="#63b8ff" d="M343,-9.5C351.45,-9.5 360.11,-9.5 368.59,-9.5"/>
<polygon fill="#63b8ff" stroke="#63b8ff" points="368.82,-13 378.82,-9.5 368.82,-6 368.82,-13"/>
</a>
</g>
</g>
</g>
</svg>
