<?xml version="1.0" encoding="UTF-8" standalone="no"?>
<!DOCTYPE svg PUBLIC "-//W3C//DTD SVG 1.1//EN"
 "http://www.w3.org/Graphics/SVG/1.1/DTD/svg11.dtd">
<!-- Generated by graphviz version 2.43.0 (0)
 -->
<!-- Title: main Pages: 1 -->
<svg width="489pt" height="138pt"
 viewBox="0.00 0.00 489.00 138.00" xmlns="http://www.w3.org/2000/svg" xmlns:xlink="http://www.w3.org/1999/xlink">
<g id="graph0" class="graph" transform="scale(1 1) rotate(0) translate(4 134)">
<title>main</title>
<!-- Node1 -->
<g id="Node000001" class="node">
<title>Node1</title>
<g id="a_Node000001"><a xlink:title="Main function.">
<polygon fill="#999999" stroke="#666666" points="41,-92 0,-92 0,-73 41,-73 41,-92"/>
<text text-anchor="middle" x="20.5" y="-80" font-family="Helvetica,sans-Serif" font-size="10.00">main</text>
</a>
</g>
</g>
<!-- Node2 -->
<g id="Node000002" class="node">
<title>Node2</title>
<g id="a_Node000002"><a xlink:href="namespaceauth.html#a42335469b7ba8836f9bace5979ac96c8" target="_top" xlink:title="Initializes the sodium library.">
<polygon fill="white" stroke="#666666" points="155,-111 95,-111 95,-92 155,-92 155,-111"/>
<text text-anchor="middle" x="125" y="-99" font-family="Helvetica,sans-Serif" font-size="10.00">auth::init</text>
</a>
</g>
</g>
<!-- Node1&#45;&gt;Node2 -->
<g id="edge1_Node000001_Node000002" class="edge">
<title>Node1&#45;&gt;Node2</title>
<g id="a_edge1_Node000001_Node000002"><a xlink:title=" ">
<path fill="none" stroke="#63b8ff" d="M41.26,-86.16C53.65,-88.46 70.04,-91.5 84.96,-94.26"/>
<polygon fill="#63b8ff" stroke="#63b8ff" points="84.52,-97.74 94.99,-96.12 85.79,-90.86 84.52,-97.74"/>
</a>
</g>
</g>
<!-- Node3 -->
<g id="Node000003" class="node">
<title>Node3</title>
<g id="a_Node000003"><a xlink:href="classATMSystem.html#a9e1bc1bb65252e003f32934657bcc2f8" target="_top" xlink:title="Starts the main application execution loop.">
<polygon fill="white" stroke="#666666" points="173,-74 77,-74 77,-55 173,-55 173,-74"/>
<text text-anchor="middle" x="125" y="-62" font-family="Helvetica,sans-Serif" font-size="10.00">ATMSystem::run</text>
</a>
</g>
</g>
<!-- Node1&#45;&gt;Node3 -->
<g id="edge2_Node000001_Node000003" class="edge">
<title>Node1&#45;&gt;Node3</title>
<g id="a_edge2_Node000001_Node000003"><a xlink:title=" ">
<path fill="none" stroke="#63b8ff" d="M41.26,-79.03C48.7,-77.72 57.57,-76.17 66.71,-74.56"/>
<polygon fill="#63b8ff" stroke="#63b8ff" points="67.43,-77.99 76.67,-72.81 66.21,-71.09 67.43,-77.99"/>
</a>
</g>
</g>
<!-- Node4 -->
<g id="Node000004" class="node">
<title>Node4</title>
<g id="a_Node000004"><a xlink:href="classATMSystem.html#a7f92ef154fb83df82f9674c3a4384236" target="_top" xlink:title="Securely adds a new user to the system.">
<polygon fill="white" stroke="#666666" points="331,-130 210,-130 210,-111 331,-111 331,-130"/>
<text text-anchor="middle" x="270.5" y="-118" font-family="Helvetica,sans-Serif" font-size="10.00">ATMSystem::addUser</text>
</a>
</g>
</g>
<!-- Node3&#45;&gt;Node4 -->
<g id="edge3_Node000003_Node000004" class="edge">
<title>Node3&#45;&gt;Node4</title>
<g id="a_edge3_Node000003_Node000004"><a xlink:title=" ">
<path fill="none" stroke="#63b8ff" d="M151.08,-74.09C158.23,-76.97 165.98,-80.24 173,-83.5 189.41,-91.12 192.25,-95.67 209,-102.5 213.7,-104.42 218.68,-106.23 223.68,-107.91"/>
<polygon fill="#63b8ff" stroke="#63b8ff" points="222.68,-111.27 233.27,-110.98 224.81,-104.6 222.68,-111.27"/>
</a>
</g>
</g>
<!-- Node6 -->
<g id="Node000006" class="node">
<title>Node6</title>
<g id="a_Node000006"><a xlink:href="namespaceui.html#aea0f52471194711a1293459820e9a66a" target="_top" xlink:title="Prompts the user to press enter to continue.">
<polygon fill="white" stroke="#666666" points="332,-93 209,-93 209,-74 332,-74 332,-93"/>
<text text-anchor="middle" x="270.5" y="-81" font-family="Helvetica,sans-Serif" font-size="10.00">ui::pauseAndContinue</text>
</a>
</g>
</g>
<!-- Node3&#45;&gt;Node6 -->
<g id="edge5_Node000003_Node000006" class="edge">
<title>Node3&#45;&gt;Node6</title>
<g id="a_edge5_Node000003_Node000006"><a xlink:title=" ">
<path fill="none" stroke="#63b8ff" d="M173.38,-70.77C181.54,-71.85 190.17,-73 198.79,-74.14"/>
<polygon fill="#63b8ff" stroke="#63b8ff" points="198.49,-77.63 208.86,-75.47 199.4,-70.69 198.49,-77.63"/>
</a>
</g>
</g>
<!-- Node7 -->
<g id="Node000007" class="node">
<title>Node7</title>
<g id="a_Node000007"><a xlink:href="namespaceui.html#ac1fc8a951e1e49e48d534abea9df4a47" target="_top" xlink:title="Prints a formatted header with a title.">
<polygon fill="white" stroke="#666666" points="315,-56 226,-56 226,-37 315,-37 315,-56"/>
<text text-anchor="middle" x="270.5" y="-44" font-family="Helvetica,sans-Serif" font-size="10.00">ui::printHeader</text>
</a>
</g>
</g>
<!-- Node3&#45;&gt;Node7 -->
<g id="edge6_Node000003_Node000007" class="edge">
<title>Node3&#45;&gt;Node7</title>
<g id="a_edge6_Node000003_Node000007"><a xlink:title=" ">
<path fill="none" stroke="#63b8ff" d="M173.38,-58.56C186.79,-56.88 201.47,-55.03 215.25,-53.31"/>
<polygon fill="#63b8ff" stroke="#63b8ff" points="216.08,-56.73 225.56,-52.01 215.21,-49.78 216.08,-56.73"/>
</a>
</g>
</g>
<!-- Node9 -->
<g id="Node000009" class="node">
<title>Node9</title>
<g id="a_Node000009"><a xlink:href="namespaceauth.html#a999ec75b390ae89517bca08df7fb47e5" target="_top" xlink:title="Verifies a password against a stored hash.">
<polygon fill="white" stroke="#666666" points="329.5,-19 211.5,-19 211.5,0 329.5,0 329.5,-19"/>
<text text-anchor="middle" x="270.5" y="-7" font-family="Helvetica,sans-Serif" font-size="10.00">auth::verifyPassword</text>
</a>
</g>
</g>
<!-- Node3&#45;&gt;Node9 -->
<g id="edge8_Node000003_Node000009" class="edge">
<title>Node3&#45;&gt;Node9</title>
<g id="a_edge8_Node000003_Node000009"><a xlink:title=" ">
<path fill="none" stroke="#63b8ff" d="M146.56,-54.86C163.21,-47.24 187.36,-36.56 209,-28.5 214.89,-26.3 221.16,-24.14 227.35,-22.11"/>
<polygon fill="#63b8ff" stroke="#63b8ff" points="228.49,-25.42 236.95,-19.03 226.36,-18.75 228.49,-25.42"/>
</a>
</g>
</g>
<!-- Node5 -->
<g id="Node000005" class="node">
<title>Node5</title>
<g id="a_Node000005"><a xlink:href="namespaceauth.html#a66b55b8603ce2214924d902c0dd90ba7" target="_top" xlink:title="Securely hashes a password.">
<polygon fill="white" stroke="#666666" points="481,-130 368,-130 368,-111 481,-111 481,-130"/>
<text text-anchor="middle" x="424.5" y="-118" font-family="Helvetica,sans-Serif" font-size="10.00">auth::hashPassword</text>
</a>
</g>
</g>
<!-- Node4&#45;&gt;Node5 -->
<g id="edge4_Node000004_Node000005" class="edge">
<title>Node4&#45;&gt;Node5</title>
<g id="a_edge4_Node000004_Node000005"><a xlink:title=" ">
<path fill="none" stroke="#63b8ff" d="M331.14,-120.5C339.75,-120.5 348.65,-120.5 357.37,-120.5"/>
<polygon fill="#63b8ff" stroke="#63b8ff" points="357.51,-124 367.51,-120.5 357.51,-117 357.51,-124"/>
</a>
</g>
</g>
<!-- Node8 -->
<g id="Node000008" class="node">
<title>Node8</title>
<g id="a_Node000008"><a xlink:href="namespaceui.html#a4ca64204ce1619b278509298d44f0ece" target="_top" xlink:title="Clears the console window.">
<polygon fill="white" stroke="#666666" points="469,-56 380,-56 380,-37 469,-37 469,-56"/>
<text text-anchor="middle" x="424.5" y="-44" font-family="Helvetica,sans-Serif" font-size="10.00">ui::clearScreen</text>
</a>
</g>
</g>
<!-- Node7&#45;&gt;Node8 -->
<g id="edge7_Node000007_Node000008" class="edge">
<title>Node7&#45;&gt;Node8</title>
<g id="a_edge7_Node000007_Node000008"><a xlink:title=" ">
<path fill="none" stroke="#63b8ff" d="M315.06,-46.5C332.15,-46.5 351.94,-46.5 369.89,-46.5"/>
<polygon fill="#63b8ff" stroke="#63b8ff" points="369.94,-50 379.94,-46.5 369.94,-43 369.94,-50"/>
</a>
</g>
</g>
</g>
</svg>
