<?xml version="1.0" encoding="UTF-8" standalone="no"?>
<!DOCTYPE svg PUBLIC "-//W3C//DTD SVG 1.1//EN"
 "http://www.w3.org/Graphics/SVG/1.1/DTD/svg11.dtd">
<!-- Generated by graphviz version 2.43.0 (0)
 -->
<!-- Title: src/main.cpp Pages: 1 -->
<svg width="344pt" height="192pt"
 viewBox="0.00 0.00 344.00 192.00" xmlns="http://www.w3.org/2000/svg" xmlns:xlink="http://www.w3.org/1999/xlink">
<g id="graph0" class="graph" transform="scale(1 1) rotate(0) translate(4 188)">
<title>src/main.cpp</title>
<!-- Node1 -->
<g id="Node000001" class="node">
<title>Node1</title>
<g id="a_Node000001"><a xlink:title="Entry point for the secure ATM simulator application.">
<polygon fill="#999999" stroke="#666666" points="191.5,-184 112.5,-184 112.5,-165 191.5,-165 191.5,-184"/>
<text text-anchor="middle" x="152" y="-172" font-family="Helvetica,sans-Serif" font-size="10.00">src/main.cpp</text>
</a>
</g>
</g>
<!-- Node2 -->
<g id="Node000002" class="node">
<title>Node2</title>
<g id="a_Node000002"><a xlink:href="auth_8hpp.html" target="_top" xlink:title="Authentication module using libsodium for secure hashing.">
<polygon fill="white" stroke="#666666" points="84,-74 0,-74 0,-55 84,-55 84,-74"/>
<text text-anchor="middle" x="42" y="-62" font-family="Helvetica,sans-Serif" font-size="10.00">auth/auth.hpp</text>
</a>
</g>
</g>
<!-- Node1&#45;&gt;Node2 -->
<g id="edge1_Node000001_Node000002" class="edge">
<title>Node1&#45;&gt;Node2</title>
<g id="a_edge1_Node000001_Node000002"><a xlink:title=" ">
<path fill="none" stroke="#63b8ff" d="M141.56,-164.94C131.05,-156.2 114.5,-142.09 101,-129 85.22,-113.71 68.25,-95.2 56.58,-82.12"/>
<polygon fill="#63b8ff" stroke="#63b8ff" points="58.99,-79.57 49.74,-74.4 53.75,-84.21 58.99,-79.57"/>
</a>
</g>
</g>
<!-- Node4 -->
<g id="Node000004" class="node">
<title>Node4</title>
<g id="a_Node000004"><a xlink:href="atm_8hpp.html" target="_top" xlink:title="Main ATM system logic and controller.">
<polygon fill="white" stroke="#666666" points="193.5,-129 110.5,-129 110.5,-110 193.5,-110 193.5,-129"/>
<text text-anchor="middle" x="152" y="-117" font-family="Helvetica,sans-Serif" font-size="10.00">logic/atm.hpp</text>
</a>
</g>
</g>
<!-- Node1&#45;&gt;Node4 -->
<g id="edge3_Node000001_Node000004" class="edge">
<title>Node1&#45;&gt;Node4</title>
<g id="a_edge3_Node000001_Node000004"><a xlink:title=" ">
<path fill="none" stroke="#63b8ff" d="M152,-164.75C152,-157.8 152,-147.85 152,-139.13"/>
<polygon fill="#63b8ff" stroke="#63b8ff" points="155.5,-139.09 152,-129.09 148.5,-139.09 155.5,-139.09"/>
</a>
</g>
</g>
<!-- Node9 -->
<g id="Node000009" class="node">
<title>Node9</title>
<g id="a_Node000009"><a xlink:title=" ">
<polygon fill="#e0e0e0" stroke="#999999" points="272,-129 212,-129 212,-110 272,-110 272,-129"/>
<text text-anchor="middle" x="242" y="-117" font-family="Helvetica,sans-Serif" font-size="10.00">iostream</text>
</a>
</g>
</g>
<!-- Node1&#45;&gt;Node9 -->
<g id="edge10_Node000001_Node000009" class="edge">
<title>Node1&#45;&gt;Node9</title>
<g id="a_edge10_Node000001_Node000009"><a xlink:title=" ">
<path fill="none" stroke="#63b8ff" d="M166.46,-164.98C180.42,-156.77 201.79,-144.18 218.25,-134.49"/>
<polygon fill="#63b8ff" stroke="#63b8ff" points="220.44,-137.26 227.28,-129.17 216.88,-131.23 220.44,-137.26"/>
</a>
</g>
</g>
<!-- Node3 -->
<g id="Node000003" class="node">
<title>Node3</title>
<g id="a_Node000003"><a xlink:title=" ">
<polygon fill="#e0e0e0" stroke="#999999" points="134,-19 90,-19 90,0 134,0 134,-19"/>
<text text-anchor="middle" x="112" y="-7" font-family="Helvetica,sans-Serif" font-size="10.00">string</text>
</a>
</g>
</g>
<!-- Node2&#45;&gt;Node3 -->
<g id="edge2_Node000002_Node000003" class="edge">
<title>Node2&#45;&gt;Node3</title>
<g id="a_edge2_Node000002_Node000003"><a xlink:title=" ">
<path fill="none" stroke="#63b8ff" d="M53.25,-54.98C63.8,-47 79.8,-34.88 92.44,-25.31"/>
<polygon fill="#63b8ff" stroke="#63b8ff" points="94.69,-28 100.55,-19.17 90.46,-22.42 94.69,-28"/>
</a>
</g>
</g>
<!-- Node4&#45;&gt;Node3 -->
<g id="edge9_Node000004_Node000003" class="edge">
<title>Node4&#45;&gt;Node3</title>
<g id="a_edge9_Node000004_Node000003"><a xlink:title=" ">
<path fill="none" stroke="#63b8ff" d="M147.42,-109.8C142.87,-100.96 135.89,-86.76 131,-74 125.33,-59.21 120.27,-41.96 116.79,-29.18"/>
<polygon fill="#63b8ff" stroke="#63b8ff" points="120.11,-28.04 114.18,-19.27 113.35,-29.83 120.11,-28.04"/>
</a>
</g>
</g>
<!-- Node5 -->
<g id="Node000005" class="node">
<title>Node5</title>
<g id="a_Node000005"><a xlink:href="user_8hpp.html" target="_top" xlink:title="Header file for User and Transaction models.">
<polygon fill="white" stroke="#666666" points="246,-74 140,-74 140,-55 246,-55 246,-74"/>
<text text-anchor="middle" x="193" y="-62" font-family="Helvetica,sans-Serif" font-size="10.00">../models/user.hpp</text>
</a>
</g>
</g>
<!-- Node4&#45;&gt;Node5 -->
<g id="edge4_Node000004_Node000005" class="edge">
<title>Node4&#45;&gt;Node5</title>
<g id="a_edge4_Node000004_Node000005"><a xlink:title=" ">
<path fill="none" stroke="#63b8ff" d="M158.77,-109.75C164.56,-102.26 173.06,-91.28 180.14,-82.13"/>
<polygon fill="#63b8ff" stroke="#63b8ff" points="183.01,-84.14 186.36,-74.09 177.47,-79.86 183.01,-84.14"/>
</a>
</g>
</g>
<!-- Node8 -->
<g id="Node000008" class="node">
<title>Node8</title>
<g id="a_Node000008"><a xlink:title=" ">
<polygon fill="#e0e0e0" stroke="#999999" points="302,-74 264,-74 264,-55 302,-55 302,-74"/>
<text text-anchor="middle" x="283" y="-62" font-family="Helvetica,sans-Serif" font-size="10.00">map</text>
</a>
</g>
</g>
<!-- Node4&#45;&gt;Node8 -->
<g id="edge8_Node000004_Node000008" class="edge">
<title>Node4&#45;&gt;Node8</title>
<g id="a_edge8_Node000004_Node000008"><a xlink:title=" ">
<path fill="none" stroke="#63b8ff" d="M173.05,-109.98C195.04,-101.09 229.7,-87.07 254.22,-77.15"/>
<polygon fill="#63b8ff" stroke="#63b8ff" points="255.75,-80.3 263.71,-73.3 253.13,-73.81 255.75,-80.3"/>
</a>
</g>
</g>
<!-- Node5&#45;&gt;Node3 -->
<g id="edge5_Node000005_Node000003" class="edge">
<title>Node5&#45;&gt;Node3</title>
<g id="a_edge5_Node000005_Node000003"><a xlink:title=" ">
<path fill="none" stroke="#63b8ff" d="M179.99,-54.98C167.54,-46.84 148.54,-34.41 133.79,-24.76"/>
<polygon fill="#63b8ff" stroke="#63b8ff" points="135.54,-21.72 125.25,-19.17 131.7,-27.57 135.54,-21.72"/>
</a>
</g>
</g>
<!-- Node6 -->
<g id="Node000006" class="node">
<title>Node6</title>
<g id="a_Node000006"><a xlink:title=" ">
<polygon fill="#e0e0e0" stroke="#999999" points="207.5,-19 160.5,-19 160.5,0 207.5,0 207.5,-19"/>
<text text-anchor="middle" x="184" y="-7" font-family="Helvetica,sans-Serif" font-size="10.00">vector</text>
</a>
</g>
</g>
<!-- Node5&#45;&gt;Node6 -->
<g id="edge6_Node000005_Node000006" class="edge">
<title>Node5&#45;&gt;Node6</title>
<g id="a_edge6_Node000005_Node000006"><a xlink:title=" ">
<path fill="none" stroke="#63b8ff" d="M191.51,-54.75C190.33,-47.8 188.64,-37.85 187.16,-29.13"/>
<polygon fill="#63b8ff" stroke="#63b8ff" points="190.58,-28.36 185.46,-19.09 183.68,-29.53 190.58,-28.36"/>
</a>
</g>
</g>
<!-- Node7 -->
<g id="Node000007" class="node">
<title>Node7</title>
<g id="a_Node000007"><a xlink:title=" ">
<polygon fill="#e0e0e0" stroke="#999999" points="336,-19 226,-19 226,0 336,0 336,-19"/>
<text text-anchor="middle" x="281" y="-7" font-family="Helvetica,sans-Serif" font-size="10.00">nlohmann/json.hpp</text>
</a>
</g>
</g>
<!-- Node5&#45;&gt;Node7 -->
<g id="edge7_Node000005_Node000007" class="edge">
<title>Node5&#45;&gt;Node7</title>
<g id="a_edge7_Node000005_Node000007"><a xlink:title=" ">
<path fill="none" stroke="#63b8ff" d="M207.14,-54.98C220.79,-46.77 241.69,-34.18 257.78,-24.49"/>
<polygon fill="#63b8ff" stroke="#63b8ff" points="259.84,-27.33 266.6,-19.17 256.23,-21.33 259.84,-27.33"/>
</a>
</g>
</g>
</g>
</svg>
