<?xml version="1.0" encoding="UTF-8" standalone="no"?>
<!DOCTYPE svg PUBLIC "-//W3C//DTD SVG 1.1//EN"
 "http://www.w3.org/Graphics/SVG/1.1/DTD/svg11.dtd">
<!-- Generated by graphviz version 2.43.0 (0)
 -->
<!-- Title: main Pages: 1 -->
<!--zoomable 138 -->

<svg id="main" version="1.1" xmlns="http://www.w3.org/2000/svg" xmlns:xlink="http://www.w3.org/1999/xlink" xml:space="preserve" onload="init(evt)">
<style type="text/css"><![CDATA[
.node, .edge {opacity: 0.7;}
.node.selected, .edge.selected {opacity: 1;}
.edge:hover path { stroke: red; }
.edge:hover polygon { stroke: red; fill: red; }
]]></style>

<defs>
  <circle id="rim" cx="0" cy="0" r="7"/>
  <circle id="rim2" cx="0" cy="0" r="3.5"/>
  <g id="zoomPlus">
    <use xlink:href="#rim" fill="#404040"><set attributeName="fill" to="#808080" begin="zoomplus.mouseover" end="zoomplus.mouseout"/></use>
    <path d="M-4,0h8M0,-4v8" fill="none" stroke="white" stroke-width="1.5" pointer-events="none"/>
  </g>
  <g id="zoomMin">
    <use xlink:href="#rim" fill="#404040"><set attributeName="fill" to="#808080" begin="zoomminus.mouseover" end="zoomminus.mouseout"/></use>
    <path d="M-4,0h8" fill="none" stroke="white" stroke-width="1.5" pointer-events="none"/>
  </g>
  <g id="arrowUp" transform="translate(30 24)">
    <use xlink:href="#rim"/>
    <path pointer-events="none" fill="none" stroke="white" stroke-width="1.5" d="M0,-3.0v7 M-2.5,-0.5L0,-3.0L2.5,-0.5"/>
  </g>
  <g id="arrowRight" transform="rotate(90) translate(36 -43)">
    <use xlink:href="#rim"/>
    <path pointer-events="none" fill="none" stroke="white" stroke-width="1.5" d="M0,-3.0v7 M-2.5,-0.5L0,-3.0L2.5,-0.5"/>
  </g>
  <g id="arrowDown" transform="rotate(180) translate(-30 -48)">
    <use xlink:href="#rim"/>
    <path pointer-events="none" fill="none" stroke="white" stroke-width="1.5" d="M0,-3.0v7 M-2.5,-0.5L0,-3.0L2.5,-0.5"/>
  </g>
  <g id="arrowLeft" transform="rotate(270) translate(-36 17)">
    <use xlink:href="#rim"/>
    <path pointer-events="none" fill="none" stroke="white" stroke-width="1.5" d="M0,-3.0v7 M-2.5,-0.5L0,-3.0L2.5,-0.5"/>
  </g>
  <g id="resetDef">
    <use xlink:href="#rim2" fill="#404040"><set attributeName="fill" to="#808080" begin="reset.mouseover" end="reset.mouseout"/></use>
  </g>
</defs>
<script type="application/ecmascript">
var viewWidth = 505;
var viewHeight = 138;
var sectionId = 'dynsection-1';
</script>
<script type="application/ecmascript" xlink:href="svg.min.js"/>
<svg id="graph" class="graph">
<g id="viewport">
<title>main</title>
<!-- Node1 -->
<g id="Node000001" class="node">
<title>Node1</title>
<g id="a_Node000001"><a xlink:title="Main function.">
<polygon fill="#999999" stroke="#666666" points="41,-92 0,-92 0,-73 41,-73 41,-92"/>
<text text-anchor="middle" x="20.5" y="-80" font-family="Helvetica,sans-Serif" font-size="10.00">main</text>
</a>
</g>
</g>
<!-- Node2 -->
<g id="Node000002" class="node">
<title>Node2</title>
<g id="a_Node000002"><a xlink:href="namespaceauth.html#a42335469b7ba8836f9bace5979ac96c8" target="_top" xlink:title="Initializes the sodium library.">
<polygon fill="white" stroke="#666666" points="155,-111 95,-111 95,-92 155,-92 155,-111"/>
<text text-anchor="middle" x="125" y="-99" font-family="Helvetica,sans-Serif" font-size="10.00">auth::init</text>
</a>
</g>
</g>
<!-- Node1&#45;&gt;Node2 -->
<g id="edge1_Node000001_Node000002" class="edge">
<title>Node1&#45;&gt;Node2</title>
<g id="a_edge1_Node000001_Node000002"><a xlink:title=" ">
<path fill="none" stroke="#63b8ff" d="M41.26,-86.16C53.65,-88.46 70.04,-91.5 84.96,-94.26"/>
<polygon fill="#63b8ff" stroke="#63b8ff" points="84.52,-97.74 94.99,-96.12 85.79,-90.86 84.52,-97.74"/>
</a>
</g>
</g>
<!-- Node3 -->
<g id="Node000003" class="node">
<title>Node3</title>
<g id="a_Node000003"><a xlink:href="classATMSystem.html#a9e1bc1bb65252e003f32934657bcc2f8" target="_top" xlink:title="Starts the main application execution loop.">
<polygon fill="white" stroke="#666666" points="173,-74 77,-74 77,-55 173,-55 173,-74"/>
<text text-anchor="middle" x="125" y="-62" font-family="Helvetica,sans-Serif" font-size="10.00">ATMSystem::run</text>
</a>
</g>
</g>
<!-- Node1&#45;&gt;Node3 -->
<g id="edge2_Node000001_Node000003" class="edge">
<title>Node1&#45;&gt;Node3</title>
<g id="a_edge2_Node000001_Node000003"><a xlink:title=" ">
<path fill="none" stroke="#63b8ff" d="M41.26,-79.03C48.7,-77.72 57.57,-76.17 66.71,-74.56"/>
<polygon fill="#63b8ff" stroke="#63b8ff" points="67.43,-77.99 76.67,-72.81 66.21,-71.09 67.43,-77.99"/>
</a>
</g>
</g>
<!-- Node4 -->
<g id="Node000004" class="node">
<title>Node4</title>
<g id="a_Node000004"><a xlink:href="classATMSystem.html#a7f92ef154fb83df82f9674c3a4384236" target="_top" xlink:title="Securely adds a new user to the system.">
<polygon fill="white" stroke="#666666" points="336.5,-130 215.5,-130 215.5,-111 336.5,-111 336.5,-130"/>
<text text-anchor="middle" x="276" y="-118" font-family="Helvetica,sans-Serif" font-size="10.00">ATMSystem::addUser</text>
</a>
</g>
</g>
<!-- Node3&#45;&gt;Node4 -->
<g id="edge3_Node000003_Node000004" class="edge">
<title>Node3&#45;&gt;Node4</title>
<g id="a_edge3_Node000003_Node000004"><a xlink:title=" ">
<path fill="none" stroke="#63b8ff" d="M151.08,-74.09C158.23,-76.97 165.98,-80.24 173,-83.5 189.41,-91.12 192.17,-95.86 209,-102.5 214.04,-104.49 219.38,-106.34 224.75,-108.04"/>
<polygon fill="#63b8ff" stroke="#63b8ff" points="223.82,-111.42 234.4,-110.94 225.83,-104.71 223.82,-111.42"/>
</a>
</g>
</g>
<!-- Node6 -->
<g id="Node000006" class="node">
<title>Node6</title>
<g id="a_Node000006"><a xlink:href="namespaceui.html#aea0f52471194711a1293459820e9a66a" target="_top" xlink:title="Prompts the user to press enter to continue.">
<polygon fill="white" stroke="#666666" points="337.5,-93 214.5,-93 214.5,-74 337.5,-74 337.5,-93"/>
<text text-anchor="middle" x="276" y="-81" font-family="Helvetica,sans-Serif" font-size="10.00">ui::pauseAndContinue</text>
</a>
</g>
</g>
<!-- Node3&#45;&gt;Node6 -->
<g id="edge5_Node000003_Node000006" class="edge">
<title>Node3&#45;&gt;Node6</title>
<g id="a_edge5_Node000003_Node000006"><a xlink:title=" ">
<path fill="none" stroke="#63b8ff" d="M173.14,-70.51C183.03,-71.77 193.66,-73.13 204.19,-74.47"/>
<polygon fill="#63b8ff" stroke="#63b8ff" points="203.87,-77.96 214.23,-75.75 204.76,-71.01 203.87,-77.96"/>
</a>
</g>
</g>
<!-- Node7 -->
<g id="Node000007" class="node">
<title>Node7</title>
<g id="a_Node000007"><a xlink:href="namespaceui.html#ac1fc8a951e1e49e48d534abea9df4a47" target="_top" xlink:title="Prints a formatted header with a title.">
<polygon fill="white" stroke="#666666" points="320.5,-56 231.5,-56 231.5,-37 320.5,-37 320.5,-56"/>
<text text-anchor="middle" x="276" y="-44" font-family="Helvetica,sans-Serif" font-size="10.00">ui::printHeader</text>
</a>
</g>
</g>
<!-- Node3&#45;&gt;Node7 -->
<g id="edge6_Node000003_Node000007" class="edge">
<title>Node3&#45;&gt;Node7</title>
<g id="a_edge6_Node000003_Node000007"><a xlink:title=" ">
<path fill="none" stroke="#63b8ff" d="M173.14,-58.8C188.46,-56.95 205.57,-54.89 221.33,-52.98"/>
<polygon fill="#63b8ff" stroke="#63b8ff" points="221.94,-56.43 231.45,-51.76 221.1,-49.49 221.94,-56.43"/>
</a>
</g>
</g>
<!-- Node9 -->
<g id="Node000009" class="node">
<title>Node9</title>
<g id="a_Node000009"><a xlink:href="classATMSystem.html#acce45e35e58d9d909c5ff3f6756c017e" target="_top" xlink:title="Verifies login credentials.">
<polygon fill="white" stroke="#666666" points="343,-19 209,-19 209,0 343,0 343,-19"/>
<text text-anchor="middle" x="276" y="-7" font-family="Helvetica,sans-Serif" font-size="10.00">ATMSystem::verifyLogin</text>
</a>
</g>
</g>
<!-- Node3&#45;&gt;Node9 -->
<g id="edge8_Node000003_Node000009" class="edge">
<title>Node3&#45;&gt;Node9</title>
<g id="a_edge8_Node000003_Node000009"><a xlink:title=" ">
<path fill="none" stroke="#63b8ff" d="M146.17,-54.88C162.8,-47.16 187.12,-36.36 209,-28.5 215.41,-26.2 222.24,-23.98 228.99,-21.92"/>
<polygon fill="#63b8ff" stroke="#63b8ff" points="230.17,-25.22 238.76,-19.02 228.18,-18.51 230.17,-25.22"/>
</a>
</g>
</g>
<!-- Node5 -->
<g id="Node000005" class="node">
<title>Node5</title>
<g id="a_Node000005"><a xlink:href="namespaceauth.html#a66b55b8603ce2214924d902c0dd90ba7" target="_top" xlink:title="Securely hashes a password.">
<polygon fill="white" stroke="#666666" points="494.5,-130 381.5,-130 381.5,-111 494.5,-111 494.5,-130"/>
<text text-anchor="middle" x="438" y="-118" font-family="Helvetica,sans-Serif" font-size="10.00">auth::hashPassword</text>
</a>
</g>
</g>
<!-- Node4&#45;&gt;Node5 -->
<g id="edge4_Node000004_Node000005" class="edge">
<title>Node4&#45;&gt;Node5</title>
<g id="a_edge4_Node000004_Node000005"><a xlink:title=" ">
<path fill="none" stroke="#63b8ff" d="M336.58,-120.5C347.8,-120.5 359.6,-120.5 371.01,-120.5"/>
<polygon fill="#63b8ff" stroke="#63b8ff" points="371.35,-124 381.35,-120.5 371.35,-117 371.35,-124"/>
</a>
</g>
</g>
<!-- Node8 -->
<g id="Node000008" class="node">
<title>Node8</title>
<g id="a_Node000008"><a xlink:href="namespaceui.html#a4ca64204ce1619b278509298d44f0ece" target="_top" xlink:title="Clears the console window.">
<polygon fill="white" stroke="#666666" points="482.5,-56 393.5,-56 393.5,-37 482.5,-37 482.5,-56"/>
<text text-anchor="middle" x="438" y="-44" font-family="Helvetica,sans-Serif" font-size="10.00">ui::clearScreen</text>
</a>
</g>
</g>
<!-- Node7&#45;&gt;Node8 -->
<g id="edge7_Node000007_Node000008" class="edge">
<title>Node7&#45;&gt;Node8</title>
<g id="a_edge7_Node000007_Node000008"><a xlink:title=" ">
<path fill="none" stroke="#63b8ff" d="M320.72,-46.5C340.03,-46.5 362.93,-46.5 383.27,-46.5"/>
<polygon fill="#63b8ff" stroke="#63b8ff" points="383.33,-50 393.33,-46.5 383.33,-43 383.33,-50"/>
</a>
</g>
</g>
<!-- Node10 -->
<g id="Node000010" class="node">
<title>Node10</title>
<g id="a_Node000010"><a xlink:href="namespaceauth.html#a999ec75b390ae89517bca08df7fb47e5" target="_top" xlink:title="Verifies a password against a stored hash.">
<polygon fill="white" stroke="#666666" points="497,-19 379,-19 379,0 497,0 497,-19"/>
<text text-anchor="middle" x="438" y="-7" font-family="Helvetica,sans-Serif" font-size="10.00">auth::verifyPassword</text>
</a>
</g>
</g>
<!-- Node9&#45;&gt;Node10 -->
<g id="edge9_Node000009_Node000010" class="edge">
<title>Node9&#45;&gt;Node10</title>
<g id="a_edge9_Node000009_Node000010"><a xlink:title=" ">
<path fill="none" stroke="#63b8ff" d="M343,-9.5C351.45,-9.5 360.11,-9.5 368.59,-9.5"/>
<polygon fill="#63b8ff" stroke="#63b8ff" points="368.82,-13 378.82,-9.5 368.82,-6 368.82,-13"/>
</a>
</g>
</g>
</g>
</svg>

<g id="navigator" transform="translate(0 0)" fill="#404254">
  <rect fill="#f2f5e9" fill-opacity="0.5" stroke="#606060" stroke-width=".5" x="0" y="0" width="60" height="60"/>
  <use id="zoomplus" xlink:href="#zoomPlus" x="17" y="9" onmousedown="handleZoom(evt,'in')"/>
  <use id="zoomminus" xlink:href="#zoomMin" x="42" y="9" onmousedown="handleZoom(evt,'out')"/>
  <use id="reset" xlink:href="#resetDef" x="30" y="36" onmousedown="handleReset()"/>
   <use id="arrowup" xlink:href="#arrowUp" x="0" y="0" onmousedown="handlePan(0,-1)"/>
  <use id="arrowright" xlink:href="#arrowRight" x="0" y="0" onmousedown="handlePan(1,0)"/>
  <use id="arrowdown" xlink:href="#arrowDown" x="0" y="0" onmousedown="handlePan(0,1)"/>
  <use id="arrowleft" xlink:href="#arrowLeft" x="0" y="0" onmousedown="handlePan(-1,0)"/>
</g>
<svg viewBox="0 0 15 15" width="100%" height="30px" preserveAspectRatio="xMaxYMin meet">
 <g id="arrow_out" transform="scale(0.3 0.3)">
  <a xlink:href="main_8cpp_ae66f6b31b5ad750f1fe042a706a4e3d4_cgraph_org.svg" target="_base">
   <rect id="button" ry="5" rx="5" y="6" x="6" height="38" width="38"
        fill="#f2f5e9" fill-opacity="0.5" stroke="#606060" stroke-width="1.0"/>
   <path id="arrow"
     d="M 11.500037,31.436501 C 11.940474,20.09759 22.043105,11.32322 32.158766,21.979434 L 37.068811,17.246167 C 37.068811,17.246167 37.088388,32 37.088388,32 L 22.160133,31.978069 C 22.160133,31.978069 26.997745,27.140456 26.997745,27.140456 C 18.528582,18.264221 13.291696,25.230495 11.500037,31.436501 z"
     style="fill:#404040;"/>
  </a>
 </g>
</svg>

<style type='text/css'>
<![CDATA[
[data-mouse-over-selected='false'] { opacity: 0.7; }
[data-mouse-over-selected='true']  { opacity: 1.0; }
]]>
</style>
<script type="application/ecmascript"><![CDATA[
document.addEventListener('DOMContentLoaded', (event) => {
  highlightEdges();
  highlightAdjacentNodes();
});
]]></script>
</svg>
