<?xml version="1.0" encoding="UTF-8" standalone="no"?>
<!DOCTYPE svg PUBLIC "-//W3C//DTD SVG 1.1//EN"
 "http://www.w3.org/Graphics/SVG/1.1/DTD/svg11.dtd">
<!-- Generated by graphviz version 2.43.0 (0)
 -->
<!-- Title: auth::hashPassword Pages: 1 -->
<svg width="487pt" height="27pt"
 viewBox="0.00 0.00 487.00 27.00" xmlns="http://www.w3.org/2000/svg" xmlns:xlink="http://www.w3.org/1999/xlink">
<g id="graph0" class="graph" transform="scale(1 1) rotate(0) translate(4 23)">
<title>auth::hashPassword</title>
<!-- Node1 -->
<g id="Node000001" class="node">
<title>Node1</title>
<g id="a_Node000001"><a xlink:title="Securely hashes a password.">
<polygon fill="#999999" stroke="#666666" points="479,-19 366,-19 366,0 479,0 479,-19"/>
<text text-anchor="middle" x="422.5" y="-7" font-family="Helvetica,sans-Serif" font-size="10.00">auth::hashPassword</text>
</a>
</g>
</g>
<!-- Node2 -->
<g id="Node000002" class="node">
<title>Node2</title>
<g id="a_Node000002"><a xlink:href="classATMSystem.html#a7f92ef154fb83df82f9674c3a4384236" target="_top" xlink:title="Securely adds a new user to the system.">
<polygon fill="white" stroke="#666666" points="330,-19 209,-19 209,0 330,0 330,-19"/>
<text text-anchor="middle" x="269.5" y="-7" font-family="Helvetica,sans-Serif" font-size="10.00">ATMSystem::addUser</text>
</a>
</g>
</g>
<!-- Node1&#45;&gt;Node2 -->
<g id="edge1_Node000001_Node000002" class="edge">
<title>Node1&#45;&gt;Node2</title>
<g id="a_edge1_Node000001_Node000002"><a xlink:title=" ">
<path fill="none" stroke="#63b8ff" d="M355.51,-9.5C347.07,-9.5 338.46,-9.5 330.12,-9.5"/>
<polygon fill="#63b8ff" stroke="#63b8ff" points="355.7,-13 365.7,-9.5 355.7,-6 355.7,-13"/>
</a>
</g>
</g>
<!-- Node3 -->
<g id="Node000003" class="node">
<title>Node3</title>
<g id="a_Node000003"><a xlink:href="classATMSystem.html#a9e1bc1bb65252e003f32934657bcc2f8" target="_top" xlink:title="Starts the main application execution loop.">
<polygon fill="white" stroke="#666666" points="173,-19 77,-19 77,0 173,0 173,-19"/>
<text text-anchor="middle" x="125" y="-7" font-family="Helvetica,sans-Serif" font-size="10.00">ATMSystem::run</text>
</a>
</g>
</g>
<!-- Node2&#45;&gt;Node3 -->
<g id="edge2_Node000002_Node000003" class="edge">
<title>Node2&#45;&gt;Node3</title>
<g id="a_edge2_Node000002_Node000003"><a xlink:title=" ">
<path fill="none" stroke="#63b8ff" d="M198.78,-9.5C190.13,-9.5 181.44,-9.5 173.24,-9.5"/>
<polygon fill="#63b8ff" stroke="#63b8ff" points="198.89,-13 208.89,-9.5 198.89,-6 198.89,-13"/>
</a>
</g>
</g>
<!-- Node4 -->
<g id="Node000004" class="node">
<title>Node4</title>
<g id="a_Node000004"><a xlink:href="main_8cpp.html#ae66f6b31b5ad750f1fe042a706a4e3d4" target="_top" xlink:title="Main function.">
<polygon fill="white" stroke="#666666" points="41,-19 0,-19 0,0 41,0 41,-19"/>
<text text-anchor="middle" x="20.5" y="-7" font-family="Helvetica,sans-Serif" font-size="10.00">main</text>
</a>
</g>
</g>
<!-- Node3&#45;&gt;Node4 -->
<g id="edge3_Node000003_Node000004" class="edge">
<title>Node3&#45;&gt;Node4</title>
<g id="a_edge3_Node000003_Node000004"><a xlink:title=" ">
<path fill="none" stroke="#63b8ff" d="M66.87,-9.5C57.62,-9.5 48.63,-9.5 41.13,-9.5"/>
<polygon fill="#63b8ff" stroke="#63b8ff" points="66.95,-13 76.95,-9.5 66.95,-6 66.95,-13"/>
</a>
</g>
</g>
</g>
</svg>
