<?xml version="1.0" encoding="UTF-8" standalone="no"?>
<!DOCTYPE svg PUBLIC "-//W3C//DTD SVG 1.1//EN"
 "http://www.w3.org/Graphics/SVG/1.1/DTD/svg11.dtd">
<!-- Generated by graphviz version 2.43.0 (0)
 -->
<!-- Title: src/storage/storage.cpp Pages: 1 -->
<svg width="323pt" height="192pt"
 viewBox="0.00 0.00 322.50 192.00" xmlns="http://www.w3.org/2000/svg" xmlns:xlink="http://www.w3.org/1999/xlink">
<g id="graph0" class="graph" transform="scale(1 1) rotate(0) translate(4 188)">
<title>src/storage/storage.cpp</title>
<!-- Node1 -->
<g id="Node000001" class="node">
<title>Node1</title>
<g id="a_Node000001"><a xlink:title="Implementation of file&#45;based user data persistence.">
<polygon fill="#999999" stroke="#666666" points="296.5,-184 165.5,-184 165.5,-165 296.5,-165 296.5,-184"/>
<text text-anchor="middle" x="231" y="-172" font-family="Helvetica,sans-Serif" font-size="10.00">src/storage/storage.cpp</text>
</a>
</g>
</g>
<!-- Node2 -->
<g id="Node000002" class="node">
<title>Node2</title>
<g id="a_Node000002"><a xlink:href="storage_8hpp.html" target="_top" xlink:title="User data persistence layer.">
<polygon fill="white" stroke="#666666" points="167,-129 93,-129 93,-110 167,-110 167,-129"/>
<text text-anchor="middle" x="130" y="-117" font-family="Helvetica,sans-Serif" font-size="10.00">storage.hpp</text>
</a>
</g>
</g>
<!-- Node1&#45;&gt;Node2 -->
<g id="edge1_Node000001_Node000002" class="edge">
<title>Node1&#45;&gt;Node2</title>
<g id="a_edge1_Node000001_Node000002"><a xlink:title=" ">
<path fill="none" stroke="#63b8ff" d="M214.77,-164.98C198.82,-156.61 174.22,-143.7 155.62,-133.95"/>
<polygon fill="#63b8ff" stroke="#63b8ff" points="157,-130.72 146.52,-129.17 153.75,-136.92 157,-130.72"/>
</a>
</g>
</g>
<!-- Node6 -->
<g id="Node000006" class="node">
<title>Node6</title>
<g id="a_Node000006"><a xlink:title=" ">
<polygon fill="#e0e0e0" stroke="#999999" points="266,-19 156,-19 156,0 266,0 266,-19"/>
<text text-anchor="middle" x="211" y="-7" font-family="Helvetica,sans-Serif" font-size="10.00">nlohmann/json.hpp</text>
</a>
</g>
</g>
<!-- Node1&#45;&gt;Node6 -->
<g id="edge9_Node000001_Node000006" class="edge">
<title>Node1&#45;&gt;Node6</title>
<g id="a_edge9_Node000001_Node000006"><a xlink:title=" ">
<path fill="none" stroke="#63b8ff" d="M229.92,-164.74C226.8,-139.31 217.7,-65.08 213.35,-29.69"/>
<polygon fill="#63b8ff" stroke="#63b8ff" points="216.77,-28.81 212.08,-19.31 209.82,-29.66 216.77,-28.81"/>
</a>
</g>
</g>
<!-- Node8 -->
<g id="Node000008" class="node">
<title>Node8</title>
<g id="a_Node000008"><a xlink:title=" ">
<polygon fill="#e0e0e0" stroke="#999999" points="314.5,-129 259.5,-129 259.5,-110 314.5,-110 314.5,-129"/>
<text text-anchor="middle" x="287" y="-117" font-family="Helvetica,sans-Serif" font-size="10.00">fstream</text>
</a>
</g>
</g>
<!-- Node1&#45;&gt;Node8 -->
<g id="edge8_Node000001_Node000008" class="edge">
<title>Node1&#45;&gt;Node8</title>
<g id="a_edge8_Node000001_Node000008"><a xlink:title=" ">
<path fill="none" stroke="#63b8ff" d="M240,-164.98C248.19,-157.23 260.51,-145.58 270.47,-136.14"/>
<polygon fill="#63b8ff" stroke="#63b8ff" points="272.98,-138.59 277.84,-129.17 268.17,-133.5 272.98,-138.59"/>
</a>
</g>
</g>
<!-- Node3 -->
<g id="Node000003" class="node">
<title>Node3</title>
<g id="a_Node000003"><a xlink:href="user_8hpp.html" target="_top" xlink:title="Header file for User and Transaction models.">
<polygon fill="white" stroke="#666666" points="147,-74 41,-74 41,-55 147,-55 147,-74"/>
<text text-anchor="middle" x="94" y="-62" font-family="Helvetica,sans-Serif" font-size="10.00">../models/user.hpp</text>
</a>
</g>
</g>
<!-- Node2&#45;&gt;Node3 -->
<g id="edge2_Node000002_Node000003" class="edge">
<title>Node2&#45;&gt;Node3</title>
<g id="a_edge2_Node000002_Node000003"><a xlink:title=" ">
<path fill="none" stroke="#63b8ff" d="M124.06,-109.75C119.02,-102.34 111.66,-91.5 105.49,-82.41"/>
<polygon fill="#63b8ff" stroke="#63b8ff" points="108.35,-80.39 99.83,-74.09 102.56,-84.33 108.35,-80.39"/>
</a>
</g>
</g>
<!-- Node4 -->
<g id="Node000004" class="node">
<title>Node4</title>
<g id="a_Node000004"><a xlink:title=" ">
<polygon fill="#e0e0e0" stroke="#999999" points="44,-19 0,-19 0,0 44,0 44,-19"/>
<text text-anchor="middle" x="22" y="-7" font-family="Helvetica,sans-Serif" font-size="10.00">string</text>
</a>
</g>
</g>
<!-- Node2&#45;&gt;Node4 -->
<g id="edge7_Node000002_Node000004" class="edge">
<title>Node2&#45;&gt;Node4</title>
<g id="a_edge7_Node000002_Node000004"><a xlink:title=" ">
<path fill="none" stroke="#63b8ff" d="M92.84,-110.82C71.75,-104.51 46.71,-93.33 32,-74 22.39,-61.37 20.37,-43.18 20.47,-29.5"/>
<polygon fill="#63b8ff" stroke="#63b8ff" points="23.98,-29.45 20.94,-19.3 16.99,-29.13 23.98,-29.45"/>
</a>
</g>
</g>
<!-- Node7 -->
<g id="Node000007" class="node">
<title>Node7</title>
<g id="a_Node000007"><a xlink:title=" ">
<polygon fill="#e0e0e0" stroke="#999999" points="203,-74 165,-74 165,-55 203,-55 203,-74"/>
<text text-anchor="middle" x="184" y="-62" font-family="Helvetica,sans-Serif" font-size="10.00">map</text>
</a>
</g>
</g>
<!-- Node2&#45;&gt;Node7 -->
<g id="edge6_Node000002_Node000007" class="edge">
<title>Node2&#45;&gt;Node7</title>
<g id="a_edge6_Node000002_Node000007"><a xlink:title=" ">
<path fill="none" stroke="#63b8ff" d="M138.92,-109.75C146.78,-102.03 158.43,-90.6 167.92,-81.28"/>
<polygon fill="#63b8ff" stroke="#63b8ff" points="170.56,-83.59 175.25,-74.09 165.66,-78.6 170.56,-83.59"/>
</a>
</g>
</g>
<!-- Node3&#45;&gt;Node4 -->
<g id="edge3_Node000003_Node000004" class="edge">
<title>Node3&#45;&gt;Node4</title>
<g id="a_edge3_Node000003_Node000004"><a xlink:title=" ">
<path fill="none" stroke="#63b8ff" d="M82.43,-54.98C71.58,-47 55.12,-34.88 42.12,-25.31"/>
<polygon fill="#63b8ff" stroke="#63b8ff" points="43.91,-22.28 33.78,-19.17 39.76,-27.92 43.91,-22.28"/>
</a>
</g>
</g>
<!-- Node5 -->
<g id="Node000005" class="node">
<title>Node5</title>
<g id="a_Node000005"><a xlink:title=" ">
<polygon fill="#e0e0e0" stroke="#999999" points="117.5,-19 70.5,-19 70.5,0 117.5,0 117.5,-19"/>
<text text-anchor="middle" x="94" y="-7" font-family="Helvetica,sans-Serif" font-size="10.00">vector</text>
</a>
</g>
</g>
<!-- Node3&#45;&gt;Node5 -->
<g id="edge4_Node000003_Node000005" class="edge">
<title>Node3&#45;&gt;Node5</title>
<g id="a_edge4_Node000003_Node000005"><a xlink:title=" ">
<path fill="none" stroke="#63b8ff" d="M94,-54.75C94,-47.8 94,-37.85 94,-29.13"/>
<polygon fill="#63b8ff" stroke="#63b8ff" points="97.5,-29.09 94,-19.09 90.5,-29.09 97.5,-29.09"/>
</a>
</g>
</g>
<!-- Node3&#45;&gt;Node6 -->
<g id="edge5_Node000003_Node000006" class="edge">
<title>Node3&#45;&gt;Node6</title>
<g id="a_edge5_Node000003_Node000006"><a xlink:title=" ">
<path fill="none" stroke="#63b8ff" d="M112.8,-54.98C131.62,-46.46 160.82,-33.23 182.5,-23.41"/>
<polygon fill="#63b8ff" stroke="#63b8ff" points="184.2,-26.48 191.86,-19.17 181.31,-20.11 184.2,-26.48"/>
</a>
</g>
</g>
</g>
</svg>
