<?xml version="1.0" encoding="UTF-8" standalone="no"?>
<!DOCTYPE svg PUBLIC "-//W3C//DTD SVG 1.1//EN"
 "http://www.w3.org/Graphics/SVG/1.1/DTD/svg11.dtd">
<!-- Generated by graphviz version 2.43.0 (0)
 -->
<!-- Title: src/models/user.hpp Pages: 1 -->
<svg width="389pt" height="137pt"
 viewBox="0.00 0.00 389.00 137.00" xmlns="http://www.w3.org/2000/svg" xmlns:xlink="http://www.w3.org/1999/xlink">
<g id="graph0" class="graph" transform="scale(1 1) rotate(0) translate(4 133)">
<title>src/models/user.hpp</title>
<!-- Node1 -->
<g id="Node000001" class="node">
<title>Node1</title>
<g id="a_Node000001"><a xlink:title="Header file for User and Transaction models.">
<polygon fill="#999999" stroke="#666666" points="232.5,-129 118.5,-129 118.5,-110 232.5,-110 232.5,-129"/>
<text text-anchor="middle" x="175.5" y="-117" font-family="Helvetica,sans-Serif" font-size="10.00">src/models/user.hpp</text>
</a>
</g>
</g>
<!-- Node2 -->
<g id="Node000002" class="node">
<title>Node2</title>
<g id="a_Node000002"><a xlink:href="atm_8hpp.html" target="_top" xlink:title="Main ATM system logic and controller.">
<polygon fill="white" stroke="#666666" points="101,-74 0,-74 0,-55 101,-55 101,-74"/>
<text text-anchor="middle" x="50.5" y="-62" font-family="Helvetica,sans-Serif" font-size="10.00">src/logic/atm.hpp</text>
</a>
</g>
</g>
<!-- Node1&#45;&gt;Node2 -->
<g id="edge1_Node000001_Node000002" class="edge">
<title>Node1&#45;&gt;Node2</title>
<g id="a_edge1_Node000001_Node000002"><a xlink:title=" ">
<path fill="none" stroke="#63b8ff" d="M146.09,-106.03C122.97,-96.23 91.37,-82.83 70.95,-74.17"/>
<polygon fill="#63b8ff" stroke="#63b8ff" points="144.84,-109.3 155.42,-109.98 147.58,-102.86 144.84,-109.3"/>
</a>
</g>
</g>
<!-- Node5 -->
<g id="Node000005" class="node">
<title>Node5</title>
<g id="a_Node000005"><a xlink:href="user_8cpp.html" target="_top" xlink:title="Implementation of User model serialization and logic.">
<polygon fill="white" stroke="#666666" points="232,-74 119,-74 119,-55 232,-55 232,-74"/>
<text text-anchor="middle" x="175.5" y="-62" font-family="Helvetica,sans-Serif" font-size="10.00">src/models/user.cpp</text>
</a>
</g>
</g>
<!-- Node1&#45;&gt;Node5 -->
<g id="edge4_Node000001_Node000005" class="edge">
<title>Node1&#45;&gt;Node5</title>
<g id="a_edge4_Node000001_Node000005"><a xlink:title=" ">
<path fill="none" stroke="#63b8ff" d="M175.5,-99.66C175.5,-90.93 175.5,-80.99 175.5,-74.09"/>
<polygon fill="#63b8ff" stroke="#63b8ff" points="172,-99.75 175.5,-109.75 179,-99.75 172,-99.75"/>
</a>
</g>
</g>
<!-- Node6 -->
<g id="Node000006" class="node">
<title>Node6</title>
<g id="a_Node000006"><a xlink:href="storage_8hpp.html" target="_top" xlink:title="User data persistence layer.">
<polygon fill="white" stroke="#666666" points="381,-74 250,-74 250,-55 381,-55 381,-74"/>
<text text-anchor="middle" x="315.5" y="-62" font-family="Helvetica,sans-Serif" font-size="10.00">src/storage/storage.hpp</text>
</a>
</g>
</g>
<!-- Node1&#45;&gt;Node6 -->
<g id="edge5_Node000001_Node000006" class="edge">
<title>Node1&#45;&gt;Node6</title>
<g id="a_edge5_Node000001_Node000006"><a xlink:title=" ">
<path fill="none" stroke="#63b8ff" d="M207.41,-106.42C233.38,-96.59 269.42,-82.95 292.6,-74.17"/>
<polygon fill="#63b8ff" stroke="#63b8ff" points="206.11,-103.17 197.99,-109.98 208.58,-109.72 206.11,-103.17"/>
</a>
</g>
</g>
<!-- Node3 -->
<g id="Node000003" class="node">
<title>Node3</title>
<g id="a_Node000003"><a xlink:href="atm_8cpp.html" target="_top" xlink:title="Implementation of the main ATM system controller logic.">
<polygon fill="white" stroke="#666666" points="220.5,-19 120.5,-19 120.5,0 220.5,0 220.5,-19"/>
<text text-anchor="middle" x="170.5" y="-7" font-family="Helvetica,sans-Serif" font-size="10.00">src/logic/atm.cpp</text>
</a>
</g>
</g>
<!-- Node2&#45;&gt;Node3 -->
<g id="edge2_Node000002_Node000003" class="edge">
<title>Node2&#45;&gt;Node3</title>
<g id="a_edge2_Node000002_Node000003"><a xlink:title=" ">
<path fill="none" stroke="#63b8ff" d="M79.03,-50.9C101.2,-41.11 131.35,-27.79 150.87,-19.17"/>
<polygon fill="#63b8ff" stroke="#63b8ff" points="77.51,-47.74 69.78,-54.98 80.34,-54.15 77.51,-47.74"/>
</a>
</g>
</g>
<!-- Node4 -->
<g id="Node000004" class="node">
<title>Node4</title>
<g id="a_Node000004"><a xlink:href="main_8cpp.html" target="_top" xlink:title="Entry point for the secure ATM simulator application.">
<polygon fill="white" stroke="#666666" points="90,-19 11,-19 11,0 90,0 90,-19"/>
<text text-anchor="middle" x="50.5" y="-7" font-family="Helvetica,sans-Serif" font-size="10.00">src/main.cpp</text>
</a>
</g>
</g>
<!-- Node2&#45;&gt;Node4 -->
<g id="edge3_Node000002_Node000004" class="edge">
<title>Node2&#45;&gt;Node4</title>
<g id="a_edge3_Node000002_Node000004"><a xlink:title=" ">
<path fill="none" stroke="#63b8ff" d="M50.5,-44.66C50.5,-35.93 50.5,-25.99 50.5,-19.09"/>
<polygon fill="#63b8ff" stroke="#63b8ff" points="47,-44.75 50.5,-54.75 54,-44.75 47,-44.75"/>
</a>
</g>
</g>
<!-- Node6&#45;&gt;Node3 -->
<g id="edge6_Node000006_Node000003" class="edge">
<title>Node6&#45;&gt;Node3</title>
<g id="a_edge6_Node000006_Node000003"><a xlink:title=" ">
<path fill="none" stroke="#63b8ff" d="M282.81,-51.55C255.88,-41.71 218.34,-27.98 194.22,-19.17"/>
<polygon fill="#63b8ff" stroke="#63b8ff" points="281.61,-54.84 292.2,-54.98 284.01,-48.26 281.61,-54.84"/>
</a>
</g>
</g>
<!-- Node7 -->
<g id="Node000007" class="node">
<title>Node7</title>
<g id="a_Node000007"><a xlink:href="storage_8cpp.html" target="_top" xlink:title="Implementation of file&#45;based user data persistence.">
<polygon fill="white" stroke="#666666" points="381,-19 250,-19 250,0 381,0 381,-19"/>
<text text-anchor="middle" x="315.5" y="-7" font-family="Helvetica,sans-Serif" font-size="10.00">src/storage/storage.cpp</text>
</a>
</g>
</g>
<!-- Node6&#45;&gt;Node7 -->
<g id="edge7_Node000006_Node000007" class="edge">
<title>Node6&#45;&gt;Node7</title>
<g id="a_edge7_Node000006_Node000007"><a xlink:title=" ">
<path fill="none" stroke="#63b8ff" d="M315.5,-44.66C315.5,-35.93 315.5,-25.99 315.5,-19.09"/>
<polygon fill="#63b8ff" stroke="#63b8ff" points="312,-44.75 315.5,-54.75 319,-44.75 312,-44.75"/>
</a>
</g>
</g>
</g>
</svg>
